<?xml version="1.0" standalone="no"?>
<!DOCTYPE svg PUBLIC "-//W3C//DTD SVG 1.1//EN" "http://www.w3.org/Graphics/SVG/1.1/DTD/svg11.dtd" >
<svg>
<metadata>
Created by FontForge 20090914 at Tue May  9 05:40:44 2017
 By www-data
Copyright 1990-1993 Bitstream Inc.  All rights reserved.
</metadata>
<defs>
<font id="Humanist777BT-BlackB" horiz-adv-x="1024" >
  <font-face 
    font-family="Humnst777 Blk BT"
    font-weight="400"
    font-stretch="normal"
    units-per-em="2048"
    panose-1="2 11 8 3 3 5 4 3 2 4"
    ascent="1638"
    descent="-410"
    x-height="1053"
    cap-height="1421"
    bbox="-311 -484.999 2714 2032"
    underline-thickness="199"
    underline-position="-114"
    unicode-range="U+0020-U+F002"
  />
<missing-glyph horiz-adv-x="1229" 
d="M102 -362v1806h1024v-1806h-1024zM217 -248h795v1577h-795v-1577z" />
    <glyph glyph-name=".notdef" horiz-adv-x="1229" 
d="M102 -362v1806h1024v-1806h-1024zM217 -248h795v1577h-795v-1577z" />
    <glyph glyph-name="space" unicode=" " horiz-adv-x="631" 
 />
    <glyph glyph-name="exclam" unicode="!" horiz-adv-x="877" 
d="M270 315h334v-315h-334v315zM252 1421h373l-56 -948h-262z" />
    <glyph glyph-name="quotedbl" unicode="&#x22;" horiz-adv-x="713" 
d="M416 1438h223v-561h-223v561zM76 1438h219v-561h-219v561z" />
    <glyph glyph-name="numbersign" unicode="#" horiz-adv-x="1575" 
d="M707 842l-82 -232h245l82 232h-245zM684 1466h250l-139 -393h235l141 393h250l-139 -393h270l-86 -231h-268l-80 -230h277l-84 -231h-275l-141 -393h-250l139 393h-235l-141 -393h-250l139 393h-274l86 231h270l82 230h-283l86 231h279z" />
    <glyph glyph-name="dollar" unicode="$" horiz-adv-x="1262" 
d="M694 578v-310.999c52.667 2.66699 93.167 17.167 121.5 43.5s42.5 62.166 42.5 107.499c0 41.333 -13.167 74.833 -39.5 100.5s-67.833 45.5 -124.5 59.5zM594 1184c-48 -7.33301 -85.333 -23.333 -112 -48s-40 -56 -40 -94c0 -36 12.333 -65.167 37 -87.5
s63 -38.833 115 -49.5v279zM594 1595h113v-163c62.667 -1.33301 125.667 -6.5 189 -15.5s126.333 -21.833 189 -38.5l-26 -260c-51.333 24 -104.833 42 -160.5 54s-114.167 18 -175.5 18h-16v-305c164 -33.333 285.5 -85.666 364.5 -156.999s118.5 -164.333 118.5 -279
c0 -124 -43.667 -225.5 -131 -304.5s-209 -126.5 -365 -142.5v-174h-114v172h-25c-72 0 -140.667 4.16699 -206 12.5s-128.333 21.166 -189 38.499l26 291c62.667 -26 126.834 -45.833 192.501 -59.5s132.5 -21.167 200.5 -22.5l1 338c-154.667 28 -269.5 76.333 -344.5 145
s-112.5 160.334 -112.5 275.001c0 118.667 40.667 213.667 122 285s197.666 113.666 348.999 126.999v165z" />
    <glyph glyph-name="percent" unicode="%" horiz-adv-x="1944" 
d="M1509 623c-34.667 0 -59.668 -18.3311 -75.001 -54.998s-23 -98.334 -23 -185.001c0 -87.333 7.5 -148.833 22.5 -184.5s40.167 -53.5 75.5 -53.5c36 0 61.5 17.833 76.5 53.5s22.5 97.167 22.5 184.5s-7.66699 149.166 -23 185.499s-40.666 54.5 -75.999 54.5z
M1511 801.002c110 0 197.335 -37.667 262.002 -113s97 -177 97 -305c0 -127.333 -32.5 -228.5 -97.5 -303.5s-152.167 -112.5 -261.5 -112.5c-108.667 0 -195.834 37.833 -261.501 113.5s-98.5 176.5 -98.5 302.5c0 128 32.667 229.667 98 305s152.666 113 261.999 113z
M432.001 1278c-35.333 0 -60.832 -18.6689 -76.499 -56.002s-23.5 -98.666 -23.5 -183.999c0 -88 7.5 -149.833 22.5 -185.5s40.167 -53.5 75.5 -53.5s60.5 17.833 75.5 53.5s22.5 97.5 22.5 185.5c0 88.667 -7.33301 150.834 -22 186.501s-39.334 53.5 -74.001 53.5z
M1241 1456h211l-750 -1489h-213zM432.002 1456c109.333 0 196.5 -37.667 261.5 -113s97.5 -177 97.5 -305c0 -127.333 -32.5 -228.666 -97.5 -303.999s-152.167 -113 -261.5 -113c-108.667 0 -195.5 37.667 -260.5 113s-97.5 176.666 -97.5 303.999
c0 128 32.333 229.667 97 305s151.667 113 261 113z" />
    <glyph glyph-name="ampersand" unicode="&#x26;" horiz-adv-x="1575" 
d="M557 606c-38.667 -29.333 -67.166 -58.999 -85.499 -88.999s-27.5 -62.333 -27.5 -97c0 -56.667 22.333 -105.334 67 -146.001s97.667 -61 159 -61c39.333 0 75.666 5.83301 108.999 17.5s66 30.5 98 56.5zM831.001 727.001l250 -251.995c36 41.333 64 87.166 84 137.499
s31.333 102.833 34 157.5h298c-4 -100 -24.167 -192 -60.5 -276s-87.833 -157.333 -154.5 -220l274 -274h-397l-96 102c-57.333 -42.667 -121 -74.834 -191 -96.501s-146.333 -32.5 -229 -32.5c-164.667 0 -295.667 40.5 -393 121.5s-146 190.167 -146 327.5
c0 77.333 22.667 146.666 68 207.999s112.333 113.333 201 156c-59.333 58.667 -102.5 113.667 -129.5 165s-40.5 103.666 -40.5 156.999c0 106 42.833 190.167 128.5 252.5s202.5 93.5 350.5 93.5c146 0 260.333 -30.5 343 -91.5s124 -145.167 124 -252.5
c0 -81.333 -27 -154.333 -81 -219s-133 -119.334 -237 -164.001zM666.001 893.006c59.333 30 103.5 61.166 132.5 93.499s43.5 66.833 43.5 103.5c0 40 -14.5 72.167 -43.5 96.5s-67.833 36.5 -116.5 36.5c-46 0 -83.5 -11.667 -112.5 -35s-43.5 -52.666 -43.5 -87.999
c0 -29.333 11.833 -61.5 35.5 -96.5s58.5 -71.833 104.5 -110.5z" />
    <glyph glyph-name="quotesingle" unicode="'" horiz-adv-x="371" 
d="M76 1438h219v-561h-219v561z" />
    <glyph glyph-name="parenleft" unicode="(" horiz-adv-x="797" 
d="M473 1546l266 -0.000976562c-95.333 -144 -166.5 -291.167 -213.5 -441.5s-70.5 -306.166 -70.5 -467.499s23.5 -316.833 70.5 -466.5s118.167 -296.5 213.5 -440.5h-266c-111.333 136.667 -194.833 280.5 -250.5 431.5s-83.5 309.5 -83.5 475.5
c0 166.667 27.833 325.667 83.5 477s139.167 295.333 250.5 432z" />
    <glyph glyph-name="parenright" unicode=")" horiz-adv-x="797" 
d="M57 1546l265 0.000976562c112 -137.333 195.833 -281.833 251.5 -433.5s83.5 -310.167 83.5 -475.5s-27.833 -323.5 -83.5 -474.5s-139.5 -295.167 -251.5 -432.5h-265c95.333 142.667 166.333 289.167 213 439.5s70 306.166 70 467.499c0 162 -23.5 318.5 -70.5 469.5
s-117.833 297.5 -212.5 439.5z" />
    <glyph glyph-name="asterisk" unicode="*" 
d="M385 1534h254l-70 -350l314 172l75 -238l-354 -45l260 -246l-200 -145l-152 330l-152 -330l-200 145l260 246l-354 45l75 238l316 -172z" />
    <glyph glyph-name="plus" unicode="+" horiz-adv-x="1706" 
d="M735 1221h238v-494h479v-231h-479v-496h-238v496h-481v231h481v494z" />
    <glyph glyph-name="comma" unicode="," horiz-adv-x="631" 
d="M182 324h340l-200 -547h-271z" />
    <glyph glyph-name="hyphen" unicode="-" horiz-adv-x="692" 
d="M72 729h546v-270h-546v270z" />
    <glyph glyph-name="period" unicode="." horiz-adv-x="631" 
d="M147 326h334v-326h-334v326z" />
    <glyph glyph-name="slash" unicode="/" horiz-adv-x="569" 
d="M393 1456h225l-497 -1646h-219z" />
    <glyph glyph-name="zero" unicode="0" horiz-adv-x="1262" 
d="M631 1204c-64.667 0 -112.333 -39.6699 -143 -119.003s-46 -202.666 -46 -369.999c0 -169.333 15.333 -293.666 46 -372.999s78.334 -119 143.001 -119c63.333 0 110.166 39.833 140.499 119.5s45.5 203.834 45.5 372.501c0 168 -15 291.5 -45 370.5
s-77 118.5 -141 118.5zM631.001 1456c178 0 313 -62.833 405 -188.5s138 -311.167 138 -556.5s-45.667 -430.666 -137 -555.999s-226.666 -188 -405.999 -188c-178.667 0 -313.834 62.667 -405.501 188s-137.5 310.666 -137.5 555.999c0 244.667 46 430 138 556
s227 189 405 189z" />
    <glyph glyph-name="one" unicode="1" horiz-adv-x="1262" 
d="M610 1421h295v-1421h-346v1038l-264 -180l-168 246z" />
    <glyph glyph-name="two" unicode="2" horiz-adv-x="1262" 
d="M573 266h566v-266h-1016v274c224 182.667 383.333 329 478 439s142 202 142 276c0 56.667 -18.5 102 -55.5 136s-86.5 51 -148.5 51c-53.333 0 -110.333 -8.5 -171 -25.5s-126.667 -42.833 -198 -77.5l-10 293c78 29.333 156.333 51.333 235 66s158 22 238 22
c144 0 261.167 -39.333 351.5 -118s135.5 -180 135.5 -304c0 -107.333 -43.833 -222.5 -131.5 -345.5s-226.167 -263.167 -415.5 -420.5z" />
    <glyph glyph-name="three" unicode="3" horiz-adv-x="1262" 
d="M840 739c93.333 -24 164 -64 212 -120s72 -125.667 72 -209c0 -130 -58.167 -232.833 -174.5 -308.5s-275.833 -113.5 -478.5 -113.5c-62.667 0 -125.167 4 -187.5 12s-124.833 20.333 -187.5 37l21 295c51.333 -25.333 105 -44.333 161 -57s114.333 -19 175 -19
c93.333 0 166.5 16.5 219.5 49.5s79.5 77.833 79.5 134.5c0 52 -20.167 91.667 -60.5 119s-98.833 41 -175.5 41h-176v250h162c71.333 0 129 14.667 173 44s66 67.333 66 114c0 49.333 -22.333 88.833 -67 118.5s-104.667 44.5 -180 44.5c-54.667 0 -110 -5.33301 -166 -16
s-112 -26.334 -168 -47.001l-17 264c70 20.667 140.833 36.167 212.5 46.5s144.834 15.5 219.501 15.5c165.333 0 293.833 -34 385.5 -102s137.5 -162.333 137.5 -283c0 -77.333 -21.833 -142.166 -65.5 -194.499s-107.834 -90.833 -192.501 -115.5z" />
    <glyph glyph-name="four" unicode="4" horiz-adv-x="1262" 
d="M711 1153l-398 -623h379zM618 1421h420v-891h193v-256h-193v-274h-346v274h-637v314z" />
    <glyph glyph-name="five" unicode="5" horiz-adv-x="1262" 
d="M176 1421l918 0.000976562v-254h-588l-6 -239c28 3.33301 53.333 5.83301 76 7.5s43.667 2.5 63 2.5c157.333 0 282 -41.167 374 -123.5s138 -193.5 138 -333.5c0 -150 -54.667 -269.667 -164 -359s-256.666 -134 -441.999 -134c-75.333 0 -145.166 4.5 -209.499 13.5
s-125.5 22.833 -183.5 41.5v303c54 -28 110 -49 168 -63s116.667 -21 176 -21c86 0 155.167 19.167 207.5 57.5s78.5 88.166 78.5 149.499c0 70.667 -27.833 125.5 -83.5 164.5s-134.167 58.5 -235.5 58.5c-44.667 0 -91.334 -3 -140.001 -9s-100.334 -15.333 -155.001 -28z
" />
    <glyph glyph-name="six" unicode="6" horiz-adv-x="1262" 
d="M655 651c-50.667 0 -93.333 -20.499 -128 -61.499s-52 -92.833 -52 -155.5c0 -64 16.333 -116.167 49 -156.5s75 -60.5 127 -60.5c56 0 99.667 19 131 57s47 90.667 47 158c0 65.333 -16 118.166 -48 158.499s-74 60.5 -126 60.5zM1112 1386l-28.999 -279.999
c-44 26 -90.833 45.833 -140.5 59.5s-100.167 20.5 -151.5 20.5c-111.333 0 -195 -34.333 -251 -103s-84.333 -171.334 -85 -308.001c37.333 46.667 81.166 81.667 131.499 105s106.833 35 169.5 35c124.667 0 227.167 -42.833 307.5 -128.5s120.5 -195.5 120.5 -329.5
c0 -144.667 -47 -262.5 -141 -353.5s-215.667 -136.5 -365 -136.5c-180.667 0 -319.667 61.5 -417 184.5s-146 298.5 -146 526.5c0 250 56.167 440.5 168.5 571.5s275.833 196.5 490.5 196.5c56 0 111.833 -5 167.5 -15s112.5 -25 170.5 -45z" />
    <glyph glyph-name="seven" unicode="7" horiz-adv-x="1262" 
d="M88 1421h1014v-301l-506 -1120h-403l548 1157h-653v264z" />
    <glyph glyph-name="eight" unicode="8" horiz-adv-x="1262" 
d="M614 627c-60 -25.333 -106 -56.833 -138 -94.5s-48 -79.167 -48 -124.5c0 -54 19 -99.333 57 -136s85.333 -55 142 -55c56 0 102.667 18.5 140 55.5s56 83.5 56 139.5c0 46.667 -17.333 88 -52 124s-87 66.333 -157 91zM895 754
c93.333 -36 163.834 -84.3311 211.501 -144.998s71.5 -133.334 71.5 -218.001c0 -128 -49.333 -230.667 -148 -308s-231 -116 -397 -116c-166.667 0 -299.834 38 -399.501 114s-149.5 176 -149.5 300c0 89.333 25.167 164.833 75.5 226.5s121.5 104.167 213.5 127.5
c-82 32.667 -143.5 77 -184.5 133s-61.5 123 -61.5 201c0 116 46.333 209.167 139 279.5s216.334 105.5 371.001 105.5c155.333 0 277.166 -33.833 365.499 -101.5s132.5 -160.834 132.5 -279.501c0 -71.333 -21 -134.833 -63 -190.5s-101 -98.5 -177 -128.5z
M645.001 852.002c57.333 27.333 99 57.5 125 90.5s39 71.833 39 116.5s-16.5 81.667 -49.5 111s-75.167 44 -126.5 44s-93.5 -15.167 -126.5 -45.5s-49.5 -68.833 -49.5 -115.5c0 -48 16.333 -89.5 49 -124.5s79 -60.5 139 -76.5z" />
    <glyph glyph-name="nine" unicode="9" horiz-adv-x="1262" 
d="M166 37l26.998 280c44 -26 90.833 -45.667 140.5 -59s100.167 -20 151.5 -20c112 0 195.833 34 251.5 102s83.834 170.333 84.501 307c-37.333 -46.667 -81 -81.5 -131 -104.5s-106.667 -34.5 -170 -34.5c-124.667 0 -227.167 42.833 -307.5 128.5
s-120.5 195.167 -120.5 328.5c0 144.667 47 262.667 141 354s215.667 137 365 137c180 0 318.833 -61.667 416.5 -185s146.5 -299.333 146.5 -528c0 -249.333 -56.167 -439.333 -168.5 -570s-275.833 -196 -490.5 -196c-55.333 0 -110.666 5 -165.999 15s-112 25 -170 45z
M624.998 1206c-56 0 -99.832 -18.833 -131.499 -56.5s-47.5 -90.5 -47.5 -158.5c0 -64.667 16.167 -117.334 48.5 -158.001s74.5 -61 126.5 -61c51.333 0 94.166 20.333 128.499 61s51.5 92 51.5 154c0 64.667 -16.667 117.334 -50 158.001s-75.333 61 -126 61z" />
    <glyph glyph-name="colon" unicode=":" horiz-adv-x="631" 
d="M147 326h334v-326h-334v326zM147 1053h334v-326h-334v326z" />
    <glyph glyph-name="semicolon" unicode=";" horiz-adv-x="631" 
d="M182 324h340l-200 -547h-271zM170 1053h334v-326h-334v326z" />
    <glyph glyph-name="less" unicode="&#x3c;" horiz-adv-x="1706" 
d="M1442 1214v-253l-854 -351l854 -348v-254l-1178 486v233z" />
    <glyph glyph-name="equal" unicode="=" horiz-adv-x="1706" 
d="M254 502h1198v-230h-1198v230zM254 950h1198v-231h-1198v231z" />
    <glyph glyph-name="greater" unicode="&#x3e;" horiz-adv-x="1706" 
d="M264 1214l1178 -487v-233l-1178 -486v254l854 348l-854 351v253z" />
    <glyph glyph-name="question" unicode="?" horiz-adv-x="1141" 
d="M362 315h334v-315h-334v315zM684 469l-293.001 -0.000976562c0 4 -0.333008 10.167 -1 18.5s-1 14.5 -1 18.5c0 42.667 6.66699 82.834 20 120.501s34 74.5 62 110.5c14.667 19.333 35.667 45.666 63 78.999c78 94 117 166.667 117 218
c0 50.667 -19.167 90.334 -57.5 119.001s-91.5 43 -159.5 43c-49.333 0 -100.5 -5.66699 -153.5 -17s-109.5 -29 -169.5 -53l-13 273c70 19.333 140.833 33.666 212.5 42.999s144.834 14 219.501 14c150 0 268.167 -31.5 354.5 -94.5s129.5 -148.833 129.5 -257.5
c0 -39.333 -6.5 -78 -19.5 -116s-31.833 -73.667 -56.5 -107c-28 -39.333 -63.5 -83 -106.5 -131s-69.5 -79 -79.5 -93c-24 -34 -41.333 -64.667 -52 -92s-16 -54.666 -16 -81.999v-14z" />
    <glyph glyph-name="at" unicode="@" horiz-adv-x="2048" 
d="M1161 262c-37.333 -54.667 -79.498 -94.6689 -126.498 -120.002s-103.167 -38 -168.5 -38c-108.667 0 -191 29.167 -247 87.5s-84 144.166 -84 257.499c0 160.667 47.167 295.334 141.5 404.001s210.833 163 349.5 163c51.333 0 96 -10.167 134 -30.5
s69.667 -51.166 95 -92.499l52 92h206l-153 -610c0 -1.33301 -0.333008 -3.33301 -1 -6c-2 -12 -3 -21 -3 -27c0 -20 5.33301 -34.833 16 -44.5s26.334 -14.5 47.001 -14.5c91.333 0 171.5 47.833 240.5 143.5s103.5 207.5 103.5 335.5
c0 159.333 -59.833 289.333 -179.5 390s-275.5 151 -467.5 151c-98.667 0 -190 -12.167 -274 -36.5s-160.667 -60.833 -230 -109.5c-103.333 -73.333 -183 -164.833 -239 -274.5s-84 -228.5 -84 -356.5c0 -201.333 67.667 -361.833 203 -481.5
s316.666 -179.5 543.999 -179.5c109.333 0 214.666 15.833 315.999 47.5s194.666 77.834 279.999 138.501l97 -135c-104 -78 -213.667 -136.333 -329 -175s-236.666 -58 -363.999 -58c-128 0 -246.167 16.333 -354.5 49s-204.5 81 -288.5 145
c-104.667 81.333 -182.667 175.166 -234 281.499s-77 226.833 -77 361.5c0 112.667 17.667 219.5 53 320.5s87.333 193.5 156 277.5c98.667 122 218.5 214.667 359.5 278s296.833 95 467.5 95c113.333 0 220 -15.333 320 -46s186.667 -74.667 260 -132
c90.667 -71.333 158.334 -152.333 203.001 -243s67 -192.667 67 -306c0 -111.333 -21.833 -213.666 -65.5 -306.999s-107.167 -173.333 -190.5 -240c-46 -37.333 -97.333 -65.833 -154 -85.5s-115.334 -29.5 -176.001 -29.5c-70.667 0 -124.334 13.333 -161.001 40
s-56.667 66.667 -60 120zM1198 695.998c-6 50.667 -22.667 89.332 -50 115.999s-64 40 -110 40c-68.667 0 -129.167 -40.5 -181.5 -121.5s-78.5 -176.5 -78.5 -286.5c0 -55.333 11.667 -98.166 35 -128.499s56 -45.5 98 -45.5c56 0 105.333 19.667 148 59s72 92 88 158z" />
    <glyph glyph-name="A" unicode="A" horiz-adv-x="1446" 
d="M725 1104l-184 -533h362zM504 1421h457l538 -1421h-405l-101 301h-547l-106 -301h-375z" />
    <glyph glyph-name="B" unicode="B" horiz-adv-x="1360" 
d="M508 596l0.000976562 -334h149c77.333 0 136 14.5 176 43.5s60 71.167 60 126.5c0 54.667 -18.333 95.667 -55 123s-91.334 41 -164.001 41h-166zM508.001 1165v-317h115c80 0 139.833 13.5 179.5 40.5s59.5 68.167 59.5 123.5c0 50 -18.667 88 -56 114
s-92.333 39 -165 39h-133zM137.001 1421l582.001 -0.000976562c172 0 301.333 -30.833 388 -92.5s130 -153.5 130 -275.5c0 -82 -22.667 -150.167 -68 -204.5s-111.333 -93.5 -198 -117.5c97.333 -18 172.166 -56.167 224.499 -114.5s78.5 -132.833 78.5 -223.5
c0 -133.333 -47.667 -232.166 -143 -296.499s-242.333 -96.5 -441 -96.5h-553v1421z" />
    <glyph glyph-name="C" unicode="C" horiz-adv-x="1399" 
d="M1311 1378l-33 -297c-53.333 32 -108.333 55.833 -165 71.5s-115 23.5 -175 23.5c-142 0 -255 -41.333 -339 -124s-126 -193.667 -126 -333c0 -140 42.833 -251.5 128.5 -334.5s199.834 -124.5 342.501 -124.5c56 0 113.167 6.83301 171.5 20.5
s117.166 34.167 176.499 61.5l23 -319c-68 -18.667 -136 -32.667 -204 -42s-136.667 -14 -206 -14c-258 0 -459 66.167 -603 198.5s-216 316.833 -216 553.5c0 226 71 405.333 213 538s334.667 199 578 199c81.333 0 158.5 -6.5 231.5 -19.5s140.5 -32.5 202.5 -58.5z" />
    <glyph glyph-name="D" unicode="D" horiz-adv-x="1561" 
d="M518 1147l0.000976562 -862h164c133.333 0 236.333 37.667 309 113s109 182.333 109 321c0 137.333 -37.833 243 -113.5 317s-183.834 111 -324.501 111h-144zM137.001 1421l497.999 0.000976562c130 0 238.833 -8.16699 326.5 -24.5s159.167 -41.5 214.5 -75.5
c103.333 -66 181.333 -149.5 234 -250.5s79 -218.167 79 -351.5c0 -146.667 -27.5 -271.334 -82.5 -374.001s-138.833 -187 -251.5 -253c-56 -32 -127.667 -55.333 -215 -70s-204.666 -22 -351.999 -22h-451v1421z" />
    <glyph glyph-name="E" unicode="E" horiz-adv-x="1251" 
d="M137 1421h987v-266h-608v-287h574v-270h-574v-324h631v-274h-1010v1421z" />
    <glyph glyph-name="F" unicode="F" horiz-adv-x="1143" 
d="M137 1421h936v-270h-555v-303h531v-270h-531v-578h-381v1421z" />
    <glyph glyph-name="G" unicode="G" horiz-adv-x="1554" 
d="M1393 1389l-32.998 -294.999c-58 32.667 -118.667 57.167 -182 73.5s-128.333 24.5 -195 24.5c-155.333 0 -277.833 -43 -367.5 -129s-134.5 -203.333 -134.5 -352c0 -143.333 40 -257.333 120 -342s187.667 -127 323 -127c28.667 0 55 1.33301 79 4
s46.667 6.66699 68 12v297h-219v268h571v-792c-74.667 -21.333 -152.334 -37.333 -233.001 -48s-163.334 -16 -248.001 -16c-276.667 0 -486.834 62.333 -630.501 187s-215.5 306.667 -215.5 546s72.833 425.5 218.5 558.5s350.167 199.5 613.5 199.5
c78.667 0 156.834 -5.83301 234.501 -17.5s154.5 -28.834 230.5 -51.501z" />
    <glyph glyph-name="H" unicode="H" horiz-adv-x="1475" 
d="M137 1421h379v-542h442v542h379v-1421h-379v594h-442v-594h-379v1421z" />
    <glyph glyph-name="I" unicode="I" horiz-adv-x="653" 
d="M137 1421h379v-1421h-379v1421z" />
    <glyph glyph-name="J" unicode="J" horiz-adv-x="905" 
d="M387 1421h379.001v-893c0 -192 -39.5 -333.5 -118.5 -424.5s-201.833 -136.5 -368.5 -136.5c-43.333 0 -86 3.16699 -128 9.5s-82.667 15.5 -122 27.5v311c20 -8 40.167 -14 60.5 -18s40.5 -6 60.5 -6c85.333 0 146.166 24.833 182.499 74.5s54.5 135.5 54.5 257.5v798z
" />
    <glyph glyph-name="K" unicode="K" horiz-adv-x="1399" 
d="M137 1421h379v-614l440 614h424l-522 -653l576 -768h-471l-447 659v-659h-379v1421z" />
    <glyph glyph-name="L" unicode="L" horiz-adv-x="1128" 
d="M137 1421h379v-1140h571v-281h-950v1421z" />
    <glyph glyph-name="M" unicode="M" horiz-adv-x="2021" 
d="M137 1421l578.002 0.00195312l260 -854c10 -34 18.167 -72.167 24.5 -114.5s11.166 -87.833 14.499 -136.5c4.66699 52.667 10.667 101.167 18 145.5s15.666 82.166 24.999 113.499l260 846h569v-1421h-356v954c0 45.333 1.33301 92.333 4 141s6.66699 100.667 12 156
c-9.33301 -42.667 -19 -83.5 -29 -122.5s-20.667 -75.833 -32 -110.5l-320 -1018h-340l-313 1001c-10.667 34.667 -21 73.167 -31 115.5s-19.333 87.166 -28 134.499c4.66699 -67.333 8.5 -127.833 11.5 -181.5s4.5 -94.167 4.5 -121.5v-948h-332v1421z" />
    <glyph glyph-name="N" unicode="N" horiz-adv-x="1575" 
d="M137 1421l473 -0.00195312l412 -852c14 -28.667 30.333 -68.5 49 -119.5s39.334 -113.5 62.001 -187.5c-12 70 -20.833 134.333 -26.5 193s-8.5 112.334 -8.5 161.001v805h342v-1421h-471l-428 883c-20 40.667 -38.333 84.834 -55 132.501s-32 99.5 -46 155.5
c13.333 -84.667 23.166 -162.5 29.499 -233.5s9.5 -133.5 9.5 -187.5v-750h-342v1421z" />
    <glyph glyph-name="O" unicode="O" horiz-adv-x="1583" 
d="M793 1180c-98 0 -176.833 -42.1689 -236.5 -126.502s-89.5 -197.166 -89.5 -338.499c0 -142 29.667 -255.333 89 -340s138.333 -127 237 -127c98 0 176.333 42.167 235 126.5s88 197.833 88 340.5c0 140.667 -29.5 253.334 -88.5 338.001s-137.167 127 -234.5 127z
M793 1456c220.667 0 393.167 -65.833 517.5 -197.5s186.5 -314.167 186.5 -547.5c0 -234 -62.167 -416.5 -186.5 -547.5s-296.833 -196.5 -517.5 -196.5c-222 0 -395.333 65.5 -520 196.5s-187 313.5 -187 547.5c0 233.333 62.5 415.833 187.5 547.5
s298.167 197.5 519.5 197.5z" />
    <glyph glyph-name="P" unicode="P" horiz-adv-x="1276" 
d="M516 1165l0.000976562 -412.999h100c76 0 133.333 16.667 172 50s58 82.666 58 147.999c0 70.667 -19.333 124.167 -58 160.5s-95.334 54.5 -170.001 54.5h-102zM137.001 1421h508c198.667 0 345.667 -36.833 441 -110.5s143 -187.5 143 -341.5
c0 -154.667 -47 -272.167 -141 -352.5s-230.667 -120.5 -410 -120.5h-162v-496h-379v1421z" />
    <glyph glyph-name="Q" unicode="Q" horiz-adv-x="1583" 
d="M1155 49l317.999 -317h-418l-213 237h-41c-227.333 0 -403.333 64.5 -528 193.5s-187 311.833 -187 548.5c0 233.333 62.5 415.833 187.5 547.5s298.167 197.5 519.5 197.5c220.667 0 393.167 -65.833 517.5 -197.5s186.5 -314.167 186.5 -547.5
c0 -158.667 -28.167 -292.667 -84.5 -402s-142.166 -196 -257.499 -260zM792.999 1180c-98 0 -176.833 -42.1689 -236.5 -126.502s-89.5 -197.166 -89.5 -338.499c0 -142 29.667 -255.333 89 -340s138.333 -127 237 -127c98 0 176.333 42.167 235 126.5s88 197.833 88 340.5
c0 140.667 -29.5 253.334 -88.5 338.001s-137.167 127 -234.5 127z" />
    <glyph glyph-name="R" unicode="R" horiz-adv-x="1346" 
d="M508 1171l0.000976562 -364h133c82 0 143.5 14.833 184.5 44.5s61.5 74.167 61.5 133.5c0 64 -22.833 111 -68.5 141s-117.834 45 -216.501 45h-94zM137.001 1421h565c188 0 327.5 -30.5 418.5 -91.5s136.5 -153.833 136.5 -278.5c0 -92 -24 -167.667 -72 -227
s-117.333 -99 -208 -119c74.667 -27.333 134.667 -105 180 -233v-1l170 -471h-395l-125 389c-20 62.667 -47.333 106 -82 130s-88.667 36 -162 36h-55v-555h-371v1421z" />
    <glyph glyph-name="S" unicode="S" horiz-adv-x="1229" 
d="M1081 1405l-27.999 -293c-58 24.667 -113.667 43.167 -167 55.5s-105 18.5 -155 18.5c-76.667 0 -136.5 -12.167 -179.5 -36.5s-64.5 -57.833 -64.5 -100.5c0 -30 11 -56.167 33 -78.5s55 -40.833 99 -55.5l63 -20c162.667 -52.667 270.667 -99 324 -139
c50 -38.667 86.667 -82.834 110 -132.501s35 -107.834 35 -174.501c0 -156.667 -52 -276.167 -156 -358.5s-254.667 -123.5 -452 -123.5c-71.333 0 -142.833 5 -214.5 15s-142.834 25 -213.501 45l32 317c66.667 -30 131.5 -52.833 194.5 -68.5s122.5 -23.5 178.5 -23.5
c74.667 0 133.667 14 177 42s65 66 65 114c0 59.333 -69.333 113 -208 161c-33.333 11.333 -59 20.333 -77 27c-135.333 48.667 -232 105.167 -290 169.5s-87 146.5 -87 246.5c0 142.667 51 252.334 153 329.001s248.333 115 439 115c70 0 137.333 -4.16699 202 -12.5
s127 -21.166 187 -38.499z" />
    <glyph glyph-name="T" unicode="T" horiz-adv-x="1133" 
d="M25 1421h1083v-284h-352v-1137h-379v1137h-352v284z" />
    <glyph glyph-name="U" unicode="U" horiz-adv-x="1479" 
d="M133 1421l379.002 -0.000976562v-827c0 -121.333 18 -209 54 -263s93.667 -81 173 -81c81.333 0 142.666 29 183.999 87s62 143.667 62 257v827h361v-827c0 -209.333 -50.5 -366.166 -151.5 -470.499s-252.833 -156.5 -455.5 -156.5
c-200.667 0 -351.834 52.5 -453.501 157.5s-152.5 261.5 -152.5 469.5v827z" />
    <glyph glyph-name="V" unicode="V" horiz-adv-x="1436" 
d="M18 1421h396l317 -1106l313 1106h388l-482 -1421h-475z" />
    <glyph glyph-name="W" unicode="W" horiz-adv-x="2019" 
d="M20 1421l379 -0.00195312l160 -978l11.5 -103.5l13.5 -121.5c1.33301 40 4 78.5 8 115.5s8.66699 71.833 14 104.5l166 983h477l176 -979c6 -27.333 11.333 -60.166 16 -98.499s9 -80.166 13 -125.499c6 73.333 10.5 123.5 13.5 150.5s6.16699 49.167 9.5 66.5l165 986
h355l-307 -1421h-484l-184 1014c-3.33301 16.667 -7 45.5 -11 86.5s-8 90.5 -12 148.5c-4 -66 -7.5 -118.333 -10.5 -157s-5.5 -64 -7.5 -76l-172 -1016h-479z" />
    <glyph glyph-name="X" unicode="X" horiz-adv-x="1413" 
d="M51 1421h436l240 -501l229 501h408l-426 -676l477 -745h-446l-273 551l-278 -551h-416l479 745z" />
    <glyph glyph-name="Y" unicode="Y" horiz-adv-x="1294" 
d="M-55 1421h430l284 -600l283 600h408l-516 -889v-532h-379v528z" />
    <glyph glyph-name="Z" unicode="Z" horiz-adv-x="1251" 
d="M115 1421h1079v-301l-715 -846h715v-274h-1100v317l705 830h-684v274z" />
    <glyph glyph-name="bracketleft" unicode="[" horiz-adv-x="819" 
d="M197 1546h524v-223h-229v-1370h229v-223h-524v1816z" />
    <glyph glyph-name="backslash" unicode="\" horiz-adv-x="569" 
d="M-51 1456h227l492 -1646h-222z" />
    <glyph glyph-name="bracketright" unicode="]" horiz-adv-x="819" 
d="M100 1546h523v-1816h-523v223h230v1370h-230v223z" />
    <glyph glyph-name="asciicircum" unicode="^" horiz-adv-x="2048" 
d="M879 1462h288l465 -563h-264l-344 342l-346 -342h-264z" />
    <glyph glyph-name="underscore" unicode="_" 
d="M0 -244h1024v-239h-1024v239z" />
    <glyph glyph-name="grave" unicode="`" 
d="M207 1563h287l192 -371h-154z" />
    <glyph glyph-name="a" unicode="a" horiz-adv-x="1239" 
d="M719 479c-106 0 -182.333 -11.499 -229 -34.499s-70 -59.833 -70 -110.5c0 -36.667 12.5 -66.334 37.5 -89.001s58.167 -34 99.5 -34c65.333 0 118.833 22 160.5 66s62.5 101.333 62.5 172v30h-61zM1120 551.001v-551h-313l-8 164
c-42.667 -60.667 -94.167 -105.167 -154.5 -133.5s-133.166 -42.5 -218.499 -42.5c-106.667 0 -191.667 30.333 -255 91s-95 141.667 -95 243c0 116.667 46 203.167 138 259.5s233.667 84.5 425 84.5h141v14c0 57.333 -22 101.333 -66 132s-108 46 -192 46
c-41.333 0 -88.333 -7.33301 -141 -22s-109.334 -36 -170.001 -64l-6 238c58.667 24.667 122.167 43 190.5 55s143.5 18 225.5 18c172 0 298.167 -42.833 378.5 -128.5s120.5 -220.167 120.5 -403.5z" />
    <glyph glyph-name="b" unicode="b" horiz-adv-x="1399" 
d="M727 817c-71.333 0 -128 -25.332 -170 -75.999s-63 -119.334 -63 -206.001c0 -88.667 20 -158 60 -208s95 -75 165 -75c66 0 118.667 24.5 158 73.5s59 114.5 59 196.5c0 88 -19.5 159.167 -58.5 213.5s-89.167 81.5 -150.5 81.5zM133 1536h361.001v-629
c42 58.667 91.5 102.334 148.5 131.001s122.833 43 197.5 43c141.333 0 254.166 -48.833 338.499 -146.5s126.5 -228.834 126.5 -393.501c0 -166.667 -43.333 -301.167 -130 -403.5s-199.667 -153.5 -339 -153.5c-83.333 0 -157.5 19.333 -222.5 58s-117.833 95 -158.5 169
v-211h-322v1536z" />
    <glyph glyph-name="c" unicode="c" horiz-adv-x="1067" 
d="M977 1026l-24.998 -263.999c-35.333 19.333 -70.333 33.666 -105 42.999s-69.334 14 -104.001 14c-89.333 0 -160.333 -26.333 -213 -79s-79 -124 -79 -214c0 -88 28 -158.333 84 -211s131 -79 225 -79c39.333 0 77.166 5 113.499 15s71.5 25.333 105.5 46l8 -277
c-46 -16 -96.833 -28.167 -152.5 -36.5s-116.167 -12.5 -181.5 -12.5c-170.667 0 -309.167 51 -415.5 153s-159.5 235.333 -159.5 400c0 172.667 53.667 308.667 161 408s255 149 443 149c45.333 0 92.5 -4.5 141.5 -13.5s100.167 -22.833 153.5 -41.5z" />
    <glyph glyph-name="d" unicode="d" horiz-adv-x="1399" 
d="M672 817c-61.333 0 -111.833 -26.667 -151.5 -80s-59.5 -122.333 -59.5 -207c0 -85.333 19.833 -153 59.5 -203s92.834 -75 159.501 -75c69.333 0 123.833 25 163.5 75s59.5 119.333 59.5 208c0 86 -20.833 154.5 -62.5 205.5s-97.834 76.5 -168.501 76.5zM905 1536
l361.002 -0.000976562v-1536h-324v211c-40.667 -74 -93.667 -130.333 -159 -169s-139.333 -58 -222 -58c-140 0 -253.167 51 -339.5 153s-129.5 236.667 -129.5 404c0 164.667 42.167 295.834 126.5 393.501s197.166 146.5 338.499 146.5c74 0 140.167 -14.5 198.5 -43.5
s108.166 -72.5 149.499 -130.5v629z" />
    <glyph glyph-name="e" unicode="e" horiz-adv-x="1221" 
d="M1163 508l-0.000976562 -88.001h-739c7.33301 -68.667 37 -121.667 89 -159s122 -56 210 -56c52.667 0 108.334 7.33301 167.001 22s119 36.667 181 66v-258c-58.667 -21.333 -119.834 -37.333 -183.501 -48s-130.167 -16 -199.5 -16c-192 0 -342 50.667 -450 152
s-162 242 -162 422c0 164 49.833 294.333 149.5 391s234.167 145 403.5 145c170.667 0 302.334 -49.667 395.001 -149s139 -240.666 139 -423.999zM843.999 632.999c-7.33301 70.667 -30 126.167 -68 166.5s-86.333 60.5 -145 60.5c-58 0 -105.667 -20.167 -143 -60.5
s-60 -95.833 -68 -166.5h424z" />
    <glyph glyph-name="f" unicode="f" horiz-adv-x="891" 
d="M874 1532l-21.999 -246.001c-14.667 6.66699 -29.5 11.834 -44.5 15.501s-30.167 5.5 -45.5 5.5c-51.333 0 -88.833 -15.333 -112.5 -46s-35.5 -79 -35.5 -145v-63h252v-262h-252v-791h-356v791h-221v262h221v96c0 135.333 34.5 237 103.5 305s171.833 102 308.5 102
c40 0 76.667 -2 110 -6s64.666 -10 93.999 -18z" />
    <glyph glyph-name="g" unicode="g" horiz-adv-x="1374" 
d="M672 811c-64.667 0 -116.667 -24.332 -156 -72.999s-59 -113 -59 -193s19.667 -144 59 -192s91.333 -72 156 -72s117 24.167 157 72.5s60 112.166 60 191.499s-20 143.5 -60 192.5s-92.333 73.5 -157 73.5zM920 883.001l0.000976562 170.006h333v-912
c0 -194.667 -52 -340.834 -156 -438.501s-259.333 -146.5 -466 -146.5c-78 0 -152.167 5.66699 -222.5 17s-136.833 28.666 -199.5 51.999l20 269c57.333 -28.667 115.833 -50.334 175.5 -65.001s118.167 -22 175.5 -22c103.333 0 182.333 23.833 237 71.5
s82 116.167 82 205.5v98c-46.667 -58.667 -99 -102.334 -157 -131.001s-123.667 -43 -197 -43c-138.667 0 -250.834 48.833 -336.501 146.5s-128.5 226.5 -128.5 386.5c0 161.333 44.167 291.666 132.5 390.999s203.166 149 344.499 149
c74.667 0 141.834 -16.333 201.501 -49s113.5 -82.334 161.5 -149.001z" />
    <glyph glyph-name="h" unicode="h" horiz-adv-x="1360" 
d="M137 1536l361 -0.000976562v-629c36.667 56.667 84.834 99.834 144.501 129.501s127.5 44.5 203.5 44.5c128.667 0 226.667 -39.5 294 -118.5s101 -194.5 101 -346.5v-616h-358v541c0 82.667 -14.667 144.167 -44 184.5s-74 60.5 -134 60.5
c-62.667 0 -112.834 -25.333 -150.501 -76s-56.5 -118.667 -56.5 -204v-506h-361v1536z" />
    <glyph glyph-name="i" unicode="i" horiz-adv-x="639" 
d="M139 1053h361v-1053h-361v1053zM139 1536h361v-293h-361v293z" />
    <glyph glyph-name="j" unicode="j" horiz-adv-x="639" 
d="M139 1053l361.001 0.000976562v-1053c0 -150.667 -31.167 -262 -93.5 -334s-158.166 -108 -287.499 -108c-32.667 0 -65.167 1.5 -97.5 4.5s-64.833 7.83301 -97.5 14.5l10 232c7.33301 -0.666992 14.166 -1.16699 20.499 -1.5s16.166 -0.5 29.499 -0.5
c57.333 0 97.5 15.667 120.5 47s34.5 86.666 34.5 165.999v1033zM139.001 1536h361v-293h-361v293z" />
    <glyph glyph-name="k" unicode="k" horiz-adv-x="1223" 
d="M137 1536h361v-913l282 430h396l-355 -459l389 -594h-428l-284 549v-549h-361v1536z" />
    <glyph glyph-name="l" unicode="l" horiz-adv-x="639" 
d="M139 1536h361v-1536h-361v1536z" />
    <glyph glyph-name="m" unicode="m" horiz-adv-x="2044" 
d="M1171 858c41.333 71.333 93.8311 126 157.498 164s134.167 57 211.5 57c124 0 218.833 -39.5 284.5 -118.5s98.5 -193.833 98.5 -344.5v-616h-356v541c0 82 -13.5 142.333 -40.5 181s-68.833 58 -125.5 58c-58 0 -104.333 -24.667 -139 -74s-52 -116 -52 -200v-506h-358
v541c0 82 -13.333 142.333 -40 181s-68.667 58 -126 58c-58 0 -104.5 -24.833 -139.5 -74.5s-52.5 -116.167 -52.5 -199.5v-506h-357v1053h324v-189c40 69.333 91.667 122.5 155 159.5s133 55.5 209 55.5c80.667 0 150.834 -19 210.501 -57s104.834 -92.667 135.501 -164z
" />
    <glyph glyph-name="n" unicode="n" horiz-adv-x="1360" 
d="M1241 616l0.00195312 -616h-358v541c0 82.667 -14.667 144.167 -44 184.5s-74 60.5 -134 60.5c-62.667 0 -112.834 -25.333 -150.501 -76s-56.5 -118.667 -56.5 -204v-506h-361v1053h328v-189c41.333 70.667 94.666 124.5 159.999 161.5s139 55.5 221 55.5
c128.667 0 226.667 -39.5 294 -118.5s101 -194.5 101 -346.5z" />
    <glyph glyph-name="o" unicode="o" horiz-adv-x="1364" 
d="M680 829c-68 0 -123.167 -27.5 -165.5 -82.5s-63.5 -127.833 -63.5 -218.5c0 -89.333 21.167 -161.5 63.5 -216.5s97.5 -82.5 165.5 -82.5c69.333 0 124.833 27.167 166.5 81.5s62.5 126.833 62.5 217.5c0 91.333 -20.833 164.333 -62.5 219s-97.167 82 -166.5 82z
M680 1081c190 0 338.5 -49 445.5 -147s160.5 -234 160.5 -408c0 -172.667 -53.5 -308 -160.5 -406s-255.5 -147 -445.5 -147c-189.333 0 -337.333 49 -444 147s-160 233.333 -160 406c0 174 53.333 310 160 408s254.667 147 444 147z" />
    <glyph glyph-name="p" unicode="p" horiz-adv-x="1399" 
d="M498 147v-575h-361v1481h324v-201c41.333 74 94.5 130.667 159.5 170s138.167 59 219.5 59c142 0 256.333 -50 343 -150s130 -233 130 -399s-43.833 -301 -131.5 -405s-200.167 -156 -337.5 -156c-73.333 0 -138.833 14.667 -196.5 44s-107.5 73.333 -149.5 132zM723 811
c-70 0 -124.999 -25.332 -164.999 -75.999s-60 -120.334 -60 -209.001c0 -86 19.667 -154.167 59 -204.5s92.666 -75.5 159.999 -75.5c68 0 122.167 26 162.5 78s60.5 123 60.5 213c0 82.667 -19.833 149 -59.5 199s-92.167 75 -157.5 75z" />
    <glyph glyph-name="q" unicode="q" horiz-adv-x="1399" 
d="M674 811c-66.667 0 -119.501 -25.501 -158.501 -76.501s-58.5 -120.5 -58.5 -208.5c0 -84.667 20.333 -152.5 61 -203.5s94.667 -76.5 162 -76.5c66.667 0 119.834 25.167 159.501 75.5s59.5 118.5 59.5 204.5c0 88.667 -20 158.334 -60 209.001s-95 76 -165 76z
M937.999 851.999l0.00195312 200.998h322v-1481h-361v575c-42 -58.667 -91.833 -102.667 -149.5 -132s-123.167 -44 -196.5 -44c-138 0 -250.333 51.833 -337 155.5s-130 238.834 -130 405.501s43.167 299.834 129.5 399.501s200.166 149.5 341.499 149.5
c82 0 155.667 -19.667 221 -59s118.666 -96 159.999 -170z" />
    <glyph glyph-name="r" unicode="r" horiz-adv-x="893" 
d="M889 1069l-19 -311.001c-14.667 6 -31 10.5 -49 13.5s-39 4.5 -63 4.5c-86 0 -150.833 -27.667 -194.5 -83s-65.5 -136.666 -65.5 -243.999v-449h-361v1053h322v-201c36.667 78 81.334 135.667 134.001 173s115 56 187 56c18.667 0 52.667 -3.66699 102 -11
c3.33301 -0.666992 5.66602 -1 6.99902 -1z" />
    <glyph glyph-name="s" unicode="s" 
d="M905 1026l-35.002 -253.998c-48 27.333 -96.5 48.166 -145.5 62.499s-95.833 21.5 -140.5 21.5c-44 0 -78 -7.83301 -102 -23.5s-36 -37.834 -36 -66.501c0 -37.333 49 -69.333 147 -96l73 -21c112 -33.333 190.167 -74 234.5 -122s66.5 -113.667 66.5 -197
c0 -111.333 -43.333 -199 -130 -263s-206 -96 -358 -96c-64.667 0 -128.5 5 -191.5 15s-124.833 25 -185.5 45l23 270c50.667 -26 103.334 -45.833 158.001 -59.5s110 -20.5 166 -20.5c52.667 0 92.334 7.16699 119.001 21.5s40 35.833 40 64.5c0 42.667 -54 80 -162 112
l-63 19c-110 36 -186.667 76.167 -230 120.5s-65 102.5 -65 174.5c0 110 43.333 195.5 130 256.5s208.667 91.5 366 91.5c51.333 0 104 -4.66699 158 -14s108.333 -23 163 -41z" />
    <glyph glyph-name="t" unicode="t" horiz-adv-x="915" 
d="M596 1411l0.00195312 -357.999h258v-260h-258v-363c0 -78 12.667 -133 38 -165s68.666 -48 129.999 -48c8.66699 0 19.667 1.16699 33 3.5s32.333 6.5 57 12.5l6 -235c-38.667 -8.66699 -76.167 -15.334 -112.5 -20.001s-71.833 -7 -106.5 -7
c-142.667 0 -245.834 35.167 -309.501 105.5s-95.5 184.833 -95.5 343.5v373h-203v260h223v243z" />
    <glyph glyph-name="u" unicode="u" horiz-adv-x="1360" 
d="M117 1053l360 0.000976562v-531c0 -82.667 14.667 -144.334 44 -185.001s74 -61 134 -61c68 0 119.5 27.667 154.5 83s52.5 136.333 52.5 243v451h361v-1053h-328v197c-41.333 -70 -94.5 -123.333 -159.5 -160s-138.833 -55 -221.5 -55
c-129.333 0 -227.833 39.5 -295.5 118.5s-101.5 194.167 -101.5 345.5v607z" />
    <glyph glyph-name="v" unicode="v" horiz-adv-x="1206" 
d="M18 1053h390l221 -727l223 727h362l-395 -1053h-407z" />
    <glyph glyph-name="w" unicode="w" horiz-adv-x="1898" 
d="M29 1053l380.999 -0.00390625l145 -662c4.66699 -21.333 8.66699 -44.166 12 -68.499s6 -51.166 8 -80.499c4 33.333 8 63 12 89s7.66699 46 11 60l164 662h430l158 -676c4.66699 -22 8.83398 -44.333 12.501 -67s6.16699 -45.334 7.5 -68.001
c4 46.667 7 78.834 9 96.501s3.66699 29.5 5 35.5l152 679h350l-321 -1053h-412l-172 700c-4 16.667 -7.16699 36.334 -9.5 59.001s-3.83301 49.334 -4.5 80.001l-11.5 -92.5c-3 -23 -5.5 -38.5 -7.5 -46.5l-180 -700h-416z" />
    <glyph glyph-name="x" unicode="x" horiz-adv-x="1171" 
d="M33 1053h416l159 -330l158 330h393l-338 -506l353 -547h-420l-172 354l-189 -354h-399l371 545z" />
    <glyph glyph-name="y" unicode="y" horiz-adv-x="1225" 
d="M25 1053h388.999l233 -736l221 736h363l-412 -1028c-40 -100 -72.667 -173.5 -98 -220.5s-51.333 -84.167 -78 -111.5c-46 -47.333 -98 -82.333 -156 -105s-123.333 -34 -196 -34c-26.667 0 -56 1.5 -88 4.5s-67.333 7.5 -106 13.5l32 270
c20.667 -6.66699 40.667 -11.667 60 -15s38.333 -5 57 -5c49.333 0 91.333 11.5 126 34.5s64.334 59.167 89.001 108.5z" />
    <glyph glyph-name="z" unicode="z" horiz-adv-x="1030" 
d="M94 1053h883v-279l-520 -514h520v-260h-897v303l502 488h-488v262z" />
    <glyph glyph-name="braceleft" unicode="{" 
d="M893 1477l-0.000976562 -242.001c-4.66699 0 -11.667 0.333008 -21 1s-16 1 -20 1c-65.333 0 -109.333 -11.833 -132 -35.5s-34 -72.5 -34 -146.5v-240c0 -93.333 -15.333 -160 -46 -200s-85.667 -68.333 -165 -85c80 -16 135.167 -43.5 165.5 -82.5
s45.5 -105.5 45.5 -199.5v-242c0 -73.333 11.167 -121.666 33.5 -144.999s65.833 -35 130.5 -35c4.66699 0 11.834 0.333008 21.501 1s16.834 1 21.501 1v-242c-10 0 -24 -0.333008 -42 -1s-31.333 -1 -40 -1c-72 0 -131.833 4 -179.5 12s-87.5 20.333 -119.5 37
c-39.333 21.333 -66.833 50.833 -82.5 88.5s-23.5 101.834 -23.5 192.501v256c0 88.667 -16.5 151.167 -49.5 187.5s-89.167 54.5 -168.5 54.5c-2.66699 0 -8.33398 -0.333008 -17.001 -1s-15 -1 -19 -1v241c4 0 10 -0.333008 18 -1s14 -1 18 -1
c78.667 0 134.667 18.5 168 55.5s50 99.833 50 188.5v254c0 90.667 8 155.167 24 193.5s43.333 68.166 82 89.499c32 16.667 72.167 29 120.5 37s108.5 12 180.5 12c8 0 20.833 -0.333008 38.5 -1s31.5 -1 41.5 -1z" />
    <glyph glyph-name="bar" unicode="|" 
d="M393 1565h240v-2048h-240v2048z" />
    <glyph glyph-name="braceright" unicode="}" 
d="M133 1477c10 0 23.834 0.332031 41.501 0.999023s30.5 1 38.5 1c72 0 132 -4 180 -12s88.333 -20.333 121 -37c38.667 -21.333 66.167 -51.166 82.5 -89.499s24.5 -102.833 24.5 -193.5v-254c0 -89.333 16.333 -152.333 49 -189s88.667 -55 168 -55c4 0 10 0.333008 18 1
s14 1 18 1v-241c-4 0 -10 0.333008 -18 1s-14 1 -18 1c-79.333 0 -135.333 -18.333 -168 -55s-49 -99 -49 -187v-256c0 -91.333 -8.16699 -156.166 -24.5 -194.499s-43.833 -67.833 -82.5 -88.5c-30 -16 -67.833 -27.833 -113.5 -35.5s-104.834 -11.5 -177.501 -11.5
c-9.33301 0 -24 0.333008 -44 1s-35.333 1 -46 1v242c6 0 13.667 -0.333008 23 -1s16 -1 20 -1c64.667 0 108.167 11.5 130.5 34.5s33.5 71.5 33.5 145.5v242c0 93.333 15.333 159.666 46 198.999s85.667 67 165 83c-80 16.667 -135.167 44.667 -165.5 84
s-45.5 106.333 -45.5 201v240c0 74 -11.167 122.833 -33.5 146.5s-64.5 35.5 -126.5 35.5c-4.66699 0 -12.167 -0.333008 -22.5 -1s-18.5 -1 -24.5 -1v242z" />
    <glyph glyph-name="asciitilde" unicode="~" horiz-adv-x="1706" 
d="M1530 819v-254.001c-67.333 -46 -132 -80.333 -194 -103s-123 -34 -183 -34c-30 0 -59.667 2.5 -89 7.5s-57 12.167 -83 21.5c-8.66699 2.66699 -21.334 7 -38.001 13c-170 59.333 -297.333 89 -382 89c-56 0 -114.5 -12.5 -175.5 -37.5s-130.167 -65.167 -207.5 -120.5
v254c74.667 48.667 143.834 84.834 207.501 108.501s123.5 35.5 179.5 35.5c42 0 84.167 -4 126.5 -12s98.833 -23.333 169.5 -46c10.667 -3.33301 27.667 -9 51 -17c106 -37.333 188.333 -56 247 -56c56 0 113.833 12 173.5 36s125.5 62.333 197.5 115z" />
    <glyph glyph-name="nonbreakingspace" unicode="&#xa0;" horiz-adv-x="1262" 
 />
    <glyph glyph-name="exclamdown" unicode="&#xa1;" horiz-adv-x="877" 
d="M305 948h264l56 -948h-375zM270 1421h336v-315h-336v315z" />
    <glyph glyph-name="cent" unicode="&#xa2;" horiz-adv-x="1262" 
d="M811 852c-81.333 -8 -146.333 -38.167 -195 -90.5s-73 -117.833 -73 -196.5c0 -45.333 9.33301 -85.833 28 -121.5s46 -65.5 82 -89.5zM965 1362l124.998 0.000976562l-84 -272l69 -23l-31 -276c-18.667 10 -37.334 19 -56.001 27s-38 15.333 -58 22l-166 -543
c20 -5.33301 38.667 -9.33301 56 -12s34 -4 50 -4c33.333 0 66.833 5 100.5 15s67.834 25.333 102.501 46v-287c-39.333 -16.667 -81.833 -29.334 -127.5 -38.001s-94.5 -13 -146.5 -13c-15.333 0 -33.166 0.5 -53.499 1.5s-43.5 2.5 -69.5 4.5l-86 -284h-123l94 315
c-123.333 29.333 -219.666 89.5 -288.999 180.5s-104 202.167 -104 333.5c0 172 53.833 309.167 161.5 411.5s251.834 153.5 432.501 153.5c18 0 37.667 -0.5 59 -1.5s43.666 -2.5 66.999 -4.5z" />
    <glyph glyph-name="sterling" unicode="&#xa3;" horiz-adv-x="1262" 
d="M1159 1421l-12 -266.001c-26.667 10.667 -54.667 18.834 -84 24.501s-60 8.5 -92 8.5c-90 0 -159 -27 -207 -81s-72 -131.667 -72 -233v-24h299v-184h-299v-396h449v-270h-994v270h195v396h-164v184h164v45c0 182 47.667 321 143 417s233.333 144 414 144
c38.667 0 79.5 -2.83301 122.5 -8.5s88.833 -14.5 137.5 -26.5z" />
    <glyph glyph-name="currency" unicode="&#xa4;" horiz-adv-x="1241" 
d="M623 1145c-71.333 0 -132.668 -25.667 -184.001 -77s-77 -112.333 -77 -183c0 -72 25.333 -133.333 76 -184s112.334 -76 185.001 -76c71.333 0 132.5 25.333 183.5 76s76.5 112 76.5 184c0 70.667 -25.5 131.667 -76.5 183s-112.167 77 -183.5 77zM177.998 1444
l203.001 -201.002c36 24.667 73.833 43.167 113.5 55.5s81.834 18.5 126.501 18.5c46 0 89.333 -6.16699 130 -18.5s78.334 -30.833 113.001 -55.5l201 201l119 -117l-201 -205c23.333 -35.333 40.833 -72.666 52.5 -111.999s17.5 -81 17.5 -125
s-5.83301 -85.833 -17.5 -125.5s-29.167 -77.167 -52.5 -112.5l201 -203l-119 -118l-201 202c-34.667 -24.667 -71.834 -43 -111.501 -55s-82.834 -18 -129.501 -18s-89.5 5.83301 -128.5 17.5s-76.833 30.167 -113.5 55.5l-203 -202l-117 118l201 203
c-24 36 -42 73.667 -54 113s-18 81 -18 125c0 44.667 6.16699 86.834 18.5 126.501s30.166 76.5 53.499 110.5l-201 205z" />
    <glyph glyph-name="yen" unicode="&#xa5;" horiz-adv-x="1262" 
d="M-45 1421h379l309 -657l307 657h359l-283 -487h162v-143h-248l-96 -170h344v-142h-395v-479h-330v479h-397v142h344l-97 170h-247v143h165z" />
    <glyph glyph-name="brokenbar" unicode="&#xa6;" 
d="M393 408h240v-758h-240v758zM393 1432h240v-758h-240v758z" />
    <glyph glyph-name="section" unicode="&#xa7;" 
d="M416 803c-27.333 -29.333 -46.834 -54.501 -58.501 -75.501s-17.5 -40.833 -17.5 -59.5c0 -44 17.833 -82.167 53.5 -114.5s125.834 -80.166 270.501 -143.499c22 27.333 38 52 48 74s15 43 15 63c0 37.333 -17.333 72 -52 104s-121 82.667 -259 152zM939.999 1395
l-28.999 -244.001c-59.333 22.667 -117.5 40 -174.5 52s-110.833 18 -161.5 18c-48 0 -85.5 -8.66699 -112.5 -26s-40.5 -41 -40.5 -71c0 -42.667 55.333 -88 166 -136l84 -38c131.333 -61.333 220.5 -118.666 267.5 -171.999s70.5 -118 70.5 -194
c0 -52.667 -12.667 -101.667 -38 -147s-63.333 -88 -114 -128c42.667 -37.333 74.167 -75.166 94.5 -113.499s30.5 -78.833 30.5 -121.5c0 -100 -43.5 -182.333 -130.5 -247s-199.167 -97 -336.5 -97c-76.667 0 -153 5.66699 -229 17s-152.667 28.666 -230 51.999l29 262
c60.667 -29.333 121.167 -51.666 181.5 -66.999s117.833 -23 172.5 -23c60 0 107.167 10.167 141.5 30.5s51.5 47.833 51.5 82.5c0 40 -57.667 85.667 -173 137c-54 24 -96.667 44 -128 60c-98.667 48 -169.834 98 -213.501 150s-65.5 111.667 -65.5 179
c0 54.667 14.5 104.167 43.5 148.5s73.167 85.166 132.5 122.499c-48.667 30.667 -85 65.5 -109 104.5s-36 83.167 -36 132.5c0 105.333 40.833 188 122.5 248s194.5 90 338.5 90c59.333 0 122.5 -5.16699 189.5 -15.5s135.5 -25.5 205.5 -45.5z" />
    <glyph glyph-name="dieresis" unicode="&#xa8;" 
d="M567 1511h252v-270h-252v270zM205 1511h250v-270h-250v270z" />
    <glyph glyph-name="copyright" unicode="&#xa9;" horiz-adv-x="1706" 
d="M1221 891l-213.002 -0.000976562c-4.66699 44.667 -20.5 79.334 -47.5 104.001s-63.167 37 -108.5 37c-55.333 0 -98.5 -25.667 -129.5 -77s-46.5 -123.333 -46.5 -216c0 -93.333 15.833 -164 47.5 -212s77.834 -72 138.501 -72c44.667 0 80.167 13.5 106.5 40.5
s41.5 65.167 45.5 114.5h215c-4 -95.333 -39.833 -172 -107.5 -230s-155.5 -87 -263.5 -87c-126.667 0 -227 39.167 -301 117.5s-111 185.166 -111 320.499c0 138 37 247.667 111 329s173.667 122 299 122c104.667 0 190.334 -26.667 257.001 -80
s102.667 -123.666 108 -210.999zM853.998 1350c-84 0 -162.33 -15.167 -234.997 -45.5s-137.667 -74.833 -195 -133.5c-58.667 -59.333 -103.667 -126.333 -135 -201s-47 -152.334 -47 -233.001c0 -79.333 15.667 -156.166 47 -230.499s76.333 -140.833 135 -199.5
c58 -58 124 -102.5 198 -133.5s151.333 -46.5 232 -46.5s158.667 15.667 234 47s142.666 76.333 201.999 135c57.333 56 100.666 120.333 129.999 193s44 151 44 235c0 83.333 -15 161.833 -45 235.5s-73.667 139.167 -131 196.5
c-58.667 59.333 -124.834 104.333 -198.501 135s-152.167 46 -235.5 46zM852.001 1485c102.667 0 199.168 -18.666 289.501 -55.999s171.166 -91.666 242.499 -162.999c70.667 -70.667 124.167 -150.834 160.5 -240.501s54.5 -185.834 54.5 -288.501
c0 -102 -18 -197.667 -54 -287s-89 -168.333 -159 -237c-72.667 -72 -155 -127.167 -247 -165.5s-187.667 -57.5 -287 -57.5c-98.667 0 -193.167 19 -283.5 57s-171.166 92.667 -242.499 164s-125.833 151.833 -163.5 241.5s-56.5 184.5 -56.5 284.5
c0 98.667 19.167 193.667 57.5 285s93.166 173.333 164.499 246c70 70.667 149.333 124.5 238 161.5s184 55.5 286 55.5z" />
    <glyph glyph-name="ordfeminine" unicode="&#xaa;" horiz-adv-x="930" 
d="M539 1022c-80 0 -137.332 -8.00098 -171.999 -24.001s-52 -42 -52 -78c0 -26 9.5 -46.833 28.5 -62.5s43.833 -23.5 74.5 -23.5c49.333 0 89.666 15.333 120.999 46s47 70.334 47 119.001v23h-47zM840.001 1071l0.00292969 -384.998h-234l-6 115
c-32.667 -42.667 -71.334 -73.834 -116.001 -93.501s-99.667 -29.5 -165 -29.5c-80 0 -143.667 21 -191 63s-71 98.667 -71 170c0 82 34.667 142.833 104 182.5s175.333 59.5 318 59.5h107v8c0 41.333 -16.5 72.5 -49.5 93.5s-81.5 31.5 -145.5 31.5
c-32.667 0 -68.834 -5 -108.501 -15s-81.167 -24.667 -124.5 -44l-4 166c42 17.333 88.667 30.166 140 38.499s108.333 12.5 171 12.5c129.333 0 224.166 -30 284.499 -90s90.5 -154.333 90.5 -283z" />
    <glyph glyph-name="guillemotleft" unicode="&#xab;" horiz-adv-x="1200" 
d="M836 961h299l-217 -418l212 -418h-299l-231 418zM295 961h299l-217 -418l213 -418h-297l-234 418z" />
    <glyph glyph-name="logicalnot" unicode="&#xac;" horiz-adv-x="1706" 
d="M254 866h1198v-501h-229v274h-969v227z" />
    <glyph glyph-name="sfthyphen" unicode="&#xad;" horiz-adv-x="692" 
d="M72 729h546v-270h-546v270z" />
    <glyph glyph-name="registered" unicode="&#xae;" horiz-adv-x="1706" 
d="M762 1022l0.000976562 -219h80c49.333 0 86.166 8.83301 110.499 26.5s36.5 44.167 36.5 79.5c0 39.333 -12.667 68 -38 86s-66 27 -122 27h-67zM537.001 1163h329.001c116 0 204.167 -20 264.5 -60s90.5 -99 90.5 -177c0 -54 -15.333 -100.333 -46 -139
s-73.334 -66 -128.001 -82l182 -361h-248l-154 326h-65v-326h-225v819zM854.002 1350c-82.667 0 -160.001 -14.668 -232.001 -44.001s-136.667 -72 -194 -128c-60 -60 -105.667 -127.667 -137 -203s-47 -154.666 -47 -237.999c0 -80.667 14.667 -157 44 -229
s72.666 -137 129.999 -195c58 -60 124.333 -106 199 -138s153 -48 235 -48c80.667 0 158.167 15.167 232.5 45.5s140.833 73.833 199.5 130.5s103.334 122.167 134.001 196.5s46 153.5 46 237.5c0 82.667 -14.667 160.5 -44 233.5s-72 137.833 -128 194.5
c-59.333 60.667 -126.166 106.667 -200.499 138s-153.5 47 -237.5 47zM852.001 1485c104 0 202.004 -19.1689 294.004 -57.502s173.667 -94.166 245 -167.499c67.333 -69.333 118.833 -148.666 154.5 -237.999s53.5 -184.333 53.5 -285
c0 -103.333 -18.833 -200.333 -56.5 -291s-92.5 -170.334 -164.5 -239.001c-72.667 -70 -154.334 -123.667 -245.001 -161s-184.334 -56 -281.001 -56c-100.667 0 -196.334 19.333 -287.001 58s-171.667 95 -243 169c-70 72 -123.5 152.5 -160.5 241.5
s-55.5 181.833 -55.5 278.5c0 100.667 19.667 197.334 59 290.001s95.666 175 168.999 247c70 69.333 149 121.833 237 157.5s181.667 53.5 281 53.5z" />
    <glyph glyph-name="macron" unicode="&#xaf;" 
d="M205 1460h614v-168h-614v168z" />
    <glyph glyph-name="degree" unicode="&#xb0;" horiz-adv-x="674" 
d="M338 1321c-46 0 -85.167 -16 -117.5 -48s-48.5 -70.667 -48.5 -116c0 -46.667 16 -86 48 -118s71.333 -48 118 -48c45.333 0 84 16.333 116 49s48 71.667 48 117s-16 84 -48 116s-70.667 48 -116 48zM338 1466c86 0 159.333 -30.333 220 -91s91 -134 91 -220
c0 -85.333 -30.5 -158.5 -91.5 -219.5s-134.833 -91.5 -221.5 -91.5c-86 0 -159 30.167 -219 90.5s-90 133.833 -90 220.5c0 87.333 30.167 161 90.5 221s133.833 90 220.5 90z" />
    <glyph glyph-name="plusminus" unicode="&#xb1;" horiz-adv-x="1706" 
d="M254 213h1198v-231h-1198v231zM735 1241h238v-319h479v-232h-479v-319h-238v319h-481v232h481v319z" />
    <glyph glyph-name="twosuperior" unicode="&#xb2;" horiz-adv-x="834" 
d="M379 729l372.997 -0.000976562v-160h-670v164c150.667 112.667 256.667 201.5 318 266.5s92 119.5 92 163.5c0 34 -12.333 61 -37 81s-57.667 30 -99 30c-35.333 0 -73.166 -5.16699 -113.499 -15.5s-83.5 -25.833 -129.5 -46.5l-9 177c50.667 17.333 102 30.5 154 39.5
s105.333 13.5 160 13.5c94.667 0 171.834 -23.667 231.501 -71s89.5 -108.333 89.5 -183c0 -64 -28.667 -132.667 -86 -206s-148.666 -157.666 -273.999 -252.999z" />
    <glyph glyph-name="threesuperior" unicode="&#xb3;" horiz-adv-x="834" 
d="M555 1014c61.333 -15.333 107.669 -39.834 139.002 -73.501s47 -75.5 47 -125.5c0 -78 -38.333 -139.833 -115 -185.5s-181.667 -68.5 -315 -68.5c-41.333 0 -82.833 2.66699 -124.5 8s-82.834 13 -123.501 23l15 176c32.667 -14.667 67.667 -25.834 105 -33.501
s76 -11.5 116 -11.5c61.333 0 109.5 9.83301 144.5 29.5s52.5 46.834 52.5 81.501c0 30.667 -13.333 54.334 -40 71.001s-65.334 25 -116.001 25h-115v149h107c47.333 0 85.333 8.83301 114 26.5s43 40.5 43 68.5c0 30 -14.667 53.833 -44 71.5s-69 26.5 -119 26.5
c-35.333 0 -71.833 -3.16699 -109.5 -9.5s-75.167 -15.5 -112.5 -27.5l-10 158c46.667 12 93.5 21.167 140.5 27.5s95.167 9.5 144.5 9.5c109.333 0 194.333 -20.333 255 -61s91 -97.667 91 -171c0 -46 -14.5 -84.667 -43.5 -116s-71.167 -54 -126.5 -68z" />
    <glyph glyph-name="acute" unicode="&#xb4;" 
d="M530 1563h287l-325 -371h-154z" />
    <glyph glyph-name="mu" unicode="&#xb5;" horiz-adv-x="1315" 
d="M193 1090l357.999 -0.00292969l-80 -529c-4 -27.333 -7 -53.166 -9 -77.499s-3 -46.166 -3 -65.499c0 -56.667 11.833 -99.167 35.5 -127.5s59.5 -42.5 107.5 -42.5c58.667 0 104.834 22.833 138.501 68.5s58.5 119.167 74.5 220.5l88 553h357l-175 -1090h-321l18 125
c-26.667 -50 -56.5 -86 -89.5 -108s-72.833 -33 -119.5 -33c-39.333 0 -74.833 10.333 -106.5 31s-57.5 50.334 -77.5 89.001l-82 -532h-352z" />
    <glyph glyph-name="paragraph" unicode="&#xb6;" 
d="M997 1479v-123h-106v-1356h-176v1356h-150v-1356h-174v784c-109.333 4 -197 37.667 -263 101s-99 145 -99 245c0 105.333 35.333 189.833 106 253.5s165 95.5 283 95.5h579z" />
    <glyph glyph-name="periodcentered" unicode="&#xb7;" horiz-adv-x="631" 
d="M315 885c48.667 0 89.832 -16.999 123.499 -50.999s50.5 -75 50.5 -123c0 -47.333 -17.167 -87.833 -51.5 -121.5s-75.166 -50.5 -122.499 -50.5c-46 0 -86.167 17.167 -120.5 51.5s-51.5 74.5 -51.5 120.5c0 47.333 17 88.166 51 122.499s74.333 51.5 121 51.5z" />
    <glyph glyph-name="cedilla" unicode="&#xb8;" 
d="M455 0l114 0.000976562v-84h19c74 0 130.667 -16.5 170 -49.5s59 -80.5 59 -142.5c0 -66.667 -22 -118.167 -66 -154.5s-106.667 -54.5 -188 -54.5c-38.667 0 -82 3.83301 -130 11.5s-101.667 19.5 -161 35.5v137c54 -14.667 104.333 -25.834 151 -33.501
s86.667 -11.5 120 -11.5c28.667 0 50.167 5.83301 64.5 17.5s21.5 29.834 21.5 54.501c0 21.333 -9.5 37.166 -28.5 47.499s-49.167 15.5 -90.5 15.5c-14 0 -25 -0.166992 -33 -0.5s-15.333 -0.833008 -22 -1.5v213z" />
    <glyph glyph-name="onesuperior" unicode="&#xb9;" horiz-adv-x="831" 
d="M403 1421h195v-852h-229v623l-174 -109l-111 148z" />
    <glyph glyph-name="ordmasculine" unicode="&#xba;" 
d="M510 1268c-51.333 0 -92.833 -19.333 -124.5 -58s-47.5 -89.667 -47.5 -153c0 -62.667 16 -113.5 48 -152.5s73.333 -58.5 124 -58.5c52 0 93.667 19 125 57s47 89.333 47 154c0 63.333 -15.667 114.333 -47 153s-73 58 -125 58zM510 1444
c142 0 253.334 -34.5 334.001 -103.5s121 -164.167 121 -285.5s-40.167 -216.166 -120.5 -284.499s-191.833 -102.5 -334.5 -102.5c-142 0 -253 34.167 -333 102.5s-120 163.166 -120 284.499s40.167 216.5 120.5 285.5s191.166 103.5 332.499 103.5z" />
    <glyph glyph-name="guillemotright" unicode="&#xbb;" horiz-adv-x="1200" 
d="M608 961h299l232 -418l-236 -418h-299l217 418zM68 961h299l231 -418l-236 -418h-299l218 418z" />
    <glyph glyph-name="onequarter" unicode="&#xbc;" horiz-adv-x="1931" 
d="M1585 645l-252 -348h240zM1526 797h264v-500h123v-143h-123v-154h-217v154h-402v176zM1235 1456h213l-752 -1489h-213zM385 1423h184v-796h-217v581l-166 -100l-106 137z" />
    <glyph glyph-name="onehalf" unicode="&#xbd;" horiz-adv-x="1931" 
d="M1497 150l355.998 -0.00292969v-150h-639v154c143.333 104 244.5 186.333 303.5 247s88.5 111.334 88.5 152.001c0 32 -11.667 57.333 -35 76s-54.666 28 -93.999 28c-35.333 0 -72.166 -4.66699 -110.499 -14s-79.5 -23.666 -123.5 -42.999l-6 166
c50.667 16.667 100.667 29 150 37s99 12 149 12c90.667 0 164.5 -22.167 221.5 -66.5s85.5 -101.166 85.5 -170.499c0 -60 -27.667 -124.333 -83 -193s-143 -147 -263 -235zM1235 1456h213l-752 -1489h-213zM384.998 1423h184v-796h-217v581l-166 -100l-106 137z" />
    <glyph glyph-name="threequarters" unicode="&#xbe;" horiz-adv-x="1931" 
d="M1585 645l-252 -348h240zM1526 797h264v-500h123v-143h-123v-154h-217v154h-402v176zM1235 1456h213l-752 -1489h-213zM528 1040c58.667 -12.667 103.501 -34.8311 134.501 -66.498s46.5 -70.834 46.5 -117.501c0 -72.667 -36.667 -130 -110 -172s-174 -63 -302 -63
c-41.333 0 -81.5 2.16699 -120.5 6.5s-77.5 10.833 -115.5 19.5l13 166c32 -14 65.833 -24.667 101.5 -32s72.167 -11 109.5 -11c58.667 0 104.667 9.16699 138 27.5s50 43.166 50 74.499c0 29.333 -12.5 51.833 -37.5 67.5s-61.5 23.5 -109.5 23.5h-111v139h100
c46 0 82.833 8.33301 110.5 25s41.5 38.334 41.5 65.001c0 27.333 -14.167 49.166 -42.5 65.499s-66.166 24.5 -113.499 24.5c-36 0 -71.667 -2.83301 -107 -8.5s-70 -14.5 -104 -26.5l-10 148c45.333 11.333 90.666 20 135.999 26s90.666 9 135.999 9
c104 0 185 -19 243 -57s87 -91 87 -159c0 -42.667 -13.833 -78.667 -41.5 -108s-68.5 -51.333 -122.5 -66z" />
    <glyph glyph-name="questiondown" unicode="&#xbf;" horiz-adv-x="1141" 
d="M457 954l293.001 -0.000976562c0 -4 0.333008 -10 1 -18s1 -14 1 -18c0 -42.667 -6.66699 -83 -20 -121s-34 -75 -62 -111l-66 -81c-78 -93.333 -117 -165.333 -117 -216s19.333 -90.334 58 -119.001s92 -43 160 -43c50 0 101 5.66699 153 17s108.667 29 170 53l12 -272
c-72 -20 -143.667 -35 -215 -45s-143 -15 -215 -15c-150 0 -268.333 31.667 -355 95s-130 149 -130 257c0 38.667 6.66699 77.334 20 116.001s32.666 75.334 57.999 110.001c28 38.667 63.5 82.167 106.5 130.5s69.5 79.166 79.5 92.499c24 34 41.333 64.833 52 92.5
s16 54.834 16 81.501v14zM442.001 1421h336v-315h-336v315z" />
    <glyph glyph-name="Agrave" unicode="&#xc0;" horiz-adv-x="1446" 
d="M725 1104l-184 -533h362zM504 1421h457l538 -1421h-405l-101 301h-547l-106 -301h-375zM418 1938h287l192 -371h-154z" />
    <glyph glyph-name="Aacute" unicode="&#xc1;" horiz-adv-x="1446" 
d="M725 1104l-184 -533h362zM504 1421h457l538 -1421h-405l-101 301h-547l-106 -301h-375zM741 1938h287l-325 -371h-154z" />
    <glyph glyph-name="Acircumflex" unicode="&#xc2;" horiz-adv-x="1446" 
d="M725 1104l-184 -533h362zM504 1421h457l538 -1421h-405l-101 301h-547l-106 -301h-375zM594 1938h256l192 -371h-153l-166 199l-168 -199h-154z" />
    <glyph glyph-name="Atilde" unicode="&#xc3;" horiz-adv-x="1446" 
d="M725 1104l-184 -533h362zM504 1421h457l538 -1421h-405l-101 301h-547l-106 -301h-375zM936 1893l119 0.000976562c-20 -88.667 -47.5 -153.167 -82.5 -193.5s-80.5 -60.5 -136.5 -60.5c-15.333 0 -29.166 0.833008 -41.499 2.5s-23.833 4.16699 -34.5 7.5l-92 26
c-20 6 -34.833 10 -44.5 12s-17.5 3 -23.5 3c-22.667 0 -41.334 -6.33301 -56.001 -19s-26 -32.334 -34 -59.001h-119c18.667 84 45.5 146 80.5 186s79.833 60 134.5 60c10.667 0 23.334 -1.33301 38.001 -4s32 -7 52 -13l95 -26c8 -2.66699 16.667 -4.66699 26 -6
s19.666 -2 30.999 -2c22 0 40.333 7.16699 55 21.5s25.667 35.833 33 64.5z" />
    <glyph glyph-name="Adieresis" unicode="&#xc4;" horiz-adv-x="1446" 
d="M725 1104l-184 -533h362zM504 1421h457l538 -1421h-405l-101 301h-547l-106 -301h-375zM778 1886h252v-270h-252v270zM416 1886h250v-270h-250v270z" />
    <glyph glyph-name="Aring" unicode="&#xc5;" horiz-adv-x="1446" 
d="M725 1104l-184 -533h362zM504 1421h457l538 -1421h-405l-101 301h-547l-106 -301h-375zM731 1874c-31.333 0 -58.333 -11.166 -81 -33.499s-34 -49.5 -34 -81.5s11.167 -59 33.5 -81s49.5 -33 81.5 -33s59.167 11.167 81.5 33.5s33.5 49.166 33.5 80.499
c0 32 -11.167 59.167 -33.5 81.5s-49.5 33.5 -81.5 33.5zM731 2032c75.333 0 139.669 -26.668 193.002 -80.001s80 -117.666 80 -192.999c0 -76 -26.333 -140 -79 -192s-117.334 -78 -194.001 -78c-76 0 -140 26 -192 78s-78 116 -78 192s26.167 140.5 78.5 193.5
s116.166 79.5 191.499 79.5z" />
    <glyph glyph-name="AE" unicode="&#xc6;" horiz-adv-x="2015" 
d="M905 1186l-301 -623h340v623h-39zM698 1421h1190v-264h-583v-289h546v-270h-546v-324h608v-274h-969v295h-469l-143 -295h-387z" />
    <glyph glyph-name="Ccedilla" unicode="&#xc7;" horiz-adv-x="1399" 
d="M1311 1378l-33 -297c-53.333 32 -108.333 55.833 -165 71.5s-115 23.5 -175 23.5c-142 0 -255 -41.333 -339 -124s-126 -193.667 -126 -333c0 -140 42.833 -251.5 128.5 -334.5s199.834 -124.5 342.501 -124.5c56 0 113.167 6.83301 171.5 20.5
s117.166 34.167 176.499 61.5l23 -319c-68 -18.667 -136 -32.667 -204 -42s-136.667 -14 -206 -14c-258 0 -459 66.167 -603 198.5s-216 316.833 -216 553.5c0 226 71 405.333 213 538s334.667 199 578 199c81.333 0 158.5 -6.5 231.5 -19.5s140.5 -32.5 202.5 -58.5zM770 0
l114 0.000976562v-84h19c74 0 130.667 -16.5 170 -49.5s59 -80.5 59 -142.5c0 -66.667 -22 -118.167 -66 -154.5s-106.667 -54.5 -188 -54.5c-38.667 0 -82 3.83301 -130 11.5s-101.667 19.5 -161 35.5v137c54 -14.667 104.333 -25.834 151 -33.501s86.667 -11.5 120 -11.5
c28.667 0 50.167 5.83301 64.5 17.5s21.5 29.834 21.5 54.501c0 21.333 -9.5 37.166 -28.5 47.499s-49.167 15.5 -90.5 15.5c-14 0 -25 -0.166992 -33 -0.5s-15.333 -0.833008 -22 -1.5v213z" />
    <glyph glyph-name="Egrave" unicode="&#xc8;" horiz-adv-x="1251" 
d="M137 1421h987v-266h-608v-287h574v-270h-574v-324h631v-274h-1010v1421zM322 1938h287l192 -371h-154z" />
    <glyph glyph-name="Eacute" unicode="&#xc9;" horiz-adv-x="1251" 
d="M137 1421h987v-266h-608v-287h574v-270h-574v-324h631v-274h-1010v1421zM645 1938h287l-325 -371h-154z" />
    <glyph glyph-name="Ecircumflex" unicode="&#xca;" horiz-adv-x="1251" 
d="M137 1421h987v-266h-608v-287h574v-270h-574v-324h631v-274h-1010v1421zM498 1938h256l192 -371h-153l-166 199l-168 -199h-154z" />
    <glyph glyph-name="Edieresis" unicode="&#xcb;" horiz-adv-x="1251" 
d="M137 1421h987v-266h-608v-287h574v-270h-574v-324h631v-274h-1010v1421zM682 1886h252v-270h-252v270zM320 1886h250v-270h-250v270z" />
    <glyph glyph-name="Igrave" unicode="&#xcc;" horiz-adv-x="653" 
d="M137 1421h379v-1421h-379v1421zM23 1938h287l192 -371h-154z" />
    <glyph glyph-name="Iacute" unicode="&#xcd;" horiz-adv-x="653" 
d="M137 1421h379v-1421h-379v1421zM346 1938h287l-325 -371h-154z" />
    <glyph glyph-name="Icircumflex" unicode="&#xce;" horiz-adv-x="653" 
d="M137 1421h379v-1421h-379v1421zM199 1938h256l192 -371h-153l-166 199l-168 -199h-154z" />
    <glyph glyph-name="Idieresis" unicode="&#xcf;" horiz-adv-x="653" 
d="M137 1421h379v-1421h-379v1421zM383 1886h252v-270h-252v270zM21 1886h250v-270h-250v270z" />
    <glyph glyph-name="Eth" unicode="&#xd0;" horiz-adv-x="1608" 
d="M565 1147l0.000976562 -311h244v-203h-244v-348h164c133.333 0 236.333 37.667 309 113s109 182.333 109 321c0 137.333 -37.833 243 -113.5 317s-183.834 111 -324.501 111h-144zM184.001 1421l497.999 0.000976562c130 0 238.833 -8.16699 326.5 -24.5
s159.167 -41.5 214.5 -75.5c103.333 -66 181.333 -149.5 234 -250.5s79 -218.167 79 -351.5c0 -146.667 -27.5 -271.334 -82.5 -374.001s-138.833 -187 -251.5 -253c-56 -32 -127.667 -55.333 -215 -70s-204.666 -22 -351.999 -22h-451v633h-137v203h137v585z" />
    <glyph glyph-name="Ntilde" unicode="&#xd1;" horiz-adv-x="1575" 
d="M137 1421l473 -0.00195312l412 -852c14 -28.667 30.333 -68.5 49 -119.5s39.334 -113.5 62.001 -187.5c-12 70 -20.833 134.333 -26.5 193s-8.5 112.334 -8.5 161.001v805h342v-1421h-471l-428 883c-20 40.667 -38.333 84.834 -55 132.501s-32 99.5 -46 155.5
c13.333 -84.667 23.166 -162.5 29.499 -233.5s9.5 -133.5 9.5 -187.5v-750h-342v1421zM1001 1893l119 0.000976562c-20 -88.667 -47.5 -153.167 -82.5 -193.5s-80.5 -60.5 -136.5 -60.5c-15.333 0 -29.166 0.833008 -41.499 2.5s-23.833 4.16699 -34.5 7.5l-92 26
c-20 6 -34.833 10 -44.5 12s-17.5 3 -23.5 3c-22.667 0 -41.334 -6.33301 -56.001 -19s-26 -32.334 -34 -59.001h-119c18.667 84 45.5 146 80.5 186s79.833 60 134.5 60c10.667 0 23.334 -1.33301 38.001 -4s32 -7 52 -13l95 -26c8 -2.66699 16.667 -4.66699 26 -6
s19.666 -2 30.999 -2c22 0 40.333 7.16699 55 21.5s25.667 35.833 33 64.5z" />
    <glyph glyph-name="Ograve" unicode="&#xd2;" horiz-adv-x="1583" 
d="M793 1180c-98 0 -176.833 -42.1689 -236.5 -126.502s-89.5 -197.166 -89.5 -338.499c0 -142 29.667 -255.333 89 -340s138.333 -127 237 -127c98 0 176.333 42.167 235 126.5s88 197.833 88 340.5c0 140.667 -29.5 253.334 -88.5 338.001s-137.167 127 -234.5 127z
M793 1456c220.667 0 393.167 -65.833 517.5 -197.5s186.5 -314.167 186.5 -547.5c0 -234 -62.167 -416.5 -186.5 -547.5s-296.833 -196.5 -517.5 -196.5c-222 0 -395.333 65.5 -520 196.5s-187 313.5 -187 547.5c0 233.333 62.5 415.833 187.5 547.5
s298.167 197.5 519.5 197.5zM488 1938h287l192 -371h-154z" />
    <glyph glyph-name="Oacute" unicode="&#xd3;" horiz-adv-x="1583" 
d="M793 1180c-98 0 -176.833 -42.1689 -236.5 -126.502s-89.5 -197.166 -89.5 -338.499c0 -142 29.667 -255.333 89 -340s138.333 -127 237 -127c98 0 176.333 42.167 235 126.5s88 197.833 88 340.5c0 140.667 -29.5 253.334 -88.5 338.001s-137.167 127 -234.5 127z
M793 1456c220.667 0 393.167 -65.833 517.5 -197.5s186.5 -314.167 186.5 -547.5c0 -234 -62.167 -416.5 -186.5 -547.5s-296.833 -196.5 -517.5 -196.5c-222 0 -395.333 65.5 -520 196.5s-187 313.5 -187 547.5c0 233.333 62.5 415.833 187.5 547.5
s298.167 197.5 519.5 197.5zM811 1938h287l-325 -371h-154z" />
    <glyph glyph-name="Ocircumflex" unicode="&#xd4;" horiz-adv-x="1583" 
d="M793 1180c-98 0 -176.833 -42.1689 -236.5 -126.502s-89.5 -197.166 -89.5 -338.499c0 -142 29.667 -255.333 89 -340s138.333 -127 237 -127c98 0 176.333 42.167 235 126.5s88 197.833 88 340.5c0 140.667 -29.5 253.334 -88.5 338.001s-137.167 127 -234.5 127z
M793 1456c220.667 0 393.167 -65.833 517.5 -197.5s186.5 -314.167 186.5 -547.5c0 -234 -62.167 -416.5 -186.5 -547.5s-296.833 -196.5 -517.5 -196.5c-222 0 -395.333 65.5 -520 196.5s-187 313.5 -187 547.5c0 233.333 62.5 415.833 187.5 547.5
s298.167 197.5 519.5 197.5zM664 1938h256l192 -371h-153l-166 199l-168 -199h-154z" />
    <glyph glyph-name="Otilde" unicode="&#xd5;" horiz-adv-x="1583" 
d="M793 1180c-98 0 -176.833 -42.1689 -236.5 -126.502s-89.5 -197.166 -89.5 -338.499c0 -142 29.667 -255.333 89 -340s138.333 -127 237 -127c98 0 176.333 42.167 235 126.5s88 197.833 88 340.5c0 140.667 -29.5 253.334 -88.5 338.001s-137.167 127 -234.5 127z
M793 1456c220.667 0 393.167 -65.833 517.5 -197.5s186.5 -314.167 186.5 -547.5c0 -234 -62.167 -416.5 -186.5 -547.5s-296.833 -196.5 -517.5 -196.5c-222 0 -395.333 65.5 -520 196.5s-187 313.5 -187 547.5c0 233.333 62.5 415.833 187.5 547.5
s298.167 197.5 519.5 197.5zM1006 1893l119 0.000976562c-20 -88.667 -47.5 -153.167 -82.5 -193.5s-80.5 -60.5 -136.5 -60.5c-15.333 0 -29.166 0.833008 -41.499 2.5s-23.833 4.16699 -34.5 7.5l-92 26c-20 6 -34.833 10 -44.5 12s-17.5 3 -23.5 3
c-22.667 0 -41.334 -6.33301 -56.001 -19s-26 -32.334 -34 -59.001h-119c18.667 84 45.5 146 80.5 186s79.833 60 134.5 60c10.667 0 23.334 -1.33301 38.001 -4s32 -7 52 -13l95 -26c8 -2.66699 16.667 -4.66699 26 -6s19.666 -2 30.999 -2c22 0 40.333 7.16699 55 21.5
s25.667 35.833 33 64.5z" />
    <glyph glyph-name="Odieresis" unicode="&#xd6;" horiz-adv-x="1583" 
d="M793 1180c-98 0 -176.833 -42.1689 -236.5 -126.502s-89.5 -197.166 -89.5 -338.499c0 -142 29.667 -255.333 89 -340s138.333 -127 237 -127c98 0 176.333 42.167 235 126.5s88 197.833 88 340.5c0 140.667 -29.5 253.334 -88.5 338.001s-137.167 127 -234.5 127z
M793 1456c220.667 0 393.167 -65.833 517.5 -197.5s186.5 -314.167 186.5 -547.5c0 -234 -62.167 -416.5 -186.5 -547.5s-296.833 -196.5 -517.5 -196.5c-222 0 -395.333 65.5 -520 196.5s-187 313.5 -187 547.5c0 233.333 62.5 415.833 187.5 547.5
s298.167 197.5 519.5 197.5zM848 1886h252v-270h-252v270zM486 1886h250v-270h-250v270z" />
    <glyph glyph-name="multiply" unicode="&#xd7;" horiz-adv-x="1706" 
d="M430 1214l440 -440l441 440l162 -161l-441 -443l441 -440l-162 -162l-441 441l-440 -441l-162 162l441 440l-441 443z" />
    <glyph glyph-name="Oslash" unicode="&#xd8;" horiz-adv-x="1583" 
d="M1120 909l-539.999 -587.001c27.333 -28 59.666 -49.833 96.999 -65.5s76 -23.5 116 -23.5c104.667 0 189.167 43.833 253.5 131.5s96.5 204.5 96.5 350.5c0 37.333 -1.83301 71.833 -5.5 103.5s-9.5 61.834 -17.5 90.501zM1008 1108
c-34 29.333 -68.502 51.001 -103.502 65.001s-72.167 21 -111.5 21c-105.333 0 -190.166 -43.5 -254.499 -130.5s-96.5 -203.167 -96.5 -348.5c0 -34.667 1.83301 -68.334 5.5 -101.001s8.83398 -64.667 15.501 -96zM1401 1530l153.001 -143.999l-182 -204
c42 -60 73.333 -129 94 -207s31 -166 31 -264c0 -234 -62.167 -416.5 -186.5 -547.5s-296.833 -196.5 -517.5 -196.5c-88 0 -167.5 10 -238.5 30s-134.167 50.333 -189.5 91l-183 -194l-153 149l180 201c-40.667 60.667 -71.334 130.167 -92.001 208.5
s-31 165.166 -31 260.499c0 233.333 62.5 415.5 187.5 546.5s298.167 196.5 519.5 196.5c82 0 158.833 -10 230.5 -30s138.167 -50.333 199.5 -91z" />
    <glyph glyph-name="Ugrave" unicode="&#xd9;" horiz-adv-x="1479" 
d="M133 1421l379.002 -0.000976562v-827c0 -121.333 18 -209 54 -263s93.667 -81 173 -81c81.333 0 142.666 29 183.999 87s62 143.667 62 257v827h361v-827c0 -209.333 -50.5 -366.166 -151.5 -470.499s-252.833 -156.5 -455.5 -156.5
c-200.667 0 -351.834 52.5 -453.501 157.5s-152.5 261.5 -152.5 469.5v827zM434.002 1938h287l192 -371h-154z" />
    <glyph glyph-name="Uacute" unicode="&#xda;" horiz-adv-x="1479" 
d="M133 1421l379.002 -0.000976562v-827c0 -121.333 18 -209 54 -263s93.667 -81 173 -81c81.333 0 142.666 29 183.999 87s62 143.667 62 257v827h361v-827c0 -209.333 -50.5 -366.166 -151.5 -470.499s-252.833 -156.5 -455.5 -156.5
c-200.667 0 -351.834 52.5 -453.501 157.5s-152.5 261.5 -152.5 469.5v827zM757.002 1938h287l-325 -371h-154z" />
    <glyph glyph-name="Ucircumflex" unicode="&#xdb;" horiz-adv-x="1479" 
d="M133 1421l379.002 -0.000976562v-827c0 -121.333 18 -209 54 -263s93.667 -81 173 -81c81.333 0 142.666 29 183.999 87s62 143.667 62 257v827h361v-827c0 -209.333 -50.5 -366.166 -151.5 -470.499s-252.833 -156.5 -455.5 -156.5
c-200.667 0 -351.834 52.5 -453.501 157.5s-152.5 261.5 -152.5 469.5v827zM610.002 1938h256l192 -371h-153l-166 199l-168 -199h-154z" />
    <glyph glyph-name="Udieresis" unicode="&#xdc;" horiz-adv-x="1479" 
d="M133 1421l379.002 -0.000976562v-827c0 -121.333 18 -209 54 -263s93.667 -81 173 -81c81.333 0 142.666 29 183.999 87s62 143.667 62 257v827h361v-827c0 -209.333 -50.5 -366.166 -151.5 -470.499s-252.833 -156.5 -455.5 -156.5
c-200.667 0 -351.834 52.5 -453.501 157.5s-152.5 261.5 -152.5 469.5v827zM794.002 1886h252v-270h-252v270zM432.002 1886h250v-270h-250v270z" />
    <glyph glyph-name="Yacute" unicode="&#xdd;" horiz-adv-x="1294" 
d="M-55 1421h430l284 -600l283 600h408l-516 -889v-532h-379v528zM665 1938h287l-325 -371h-154z" />
    <glyph glyph-name="Thorn" unicode="&#xde;" horiz-adv-x="1276" 
d="M516 991l0.000976562 -412.999h100c76 0 133.333 16.667 172 50s58 82.666 58 147.999c0 70 -19.333 123.333 -58 160s-95.334 55 -170.001 55h-102zM137.001 1421h379v-174h129c198.667 0 345.667 -36.833 441 -110.5s143 -187.5 143 -341.5
c0 -154.667 -47 -272.167 -141 -352.5s-230.667 -120.5 -410 -120.5h-162v-322h-379v1421z" />
    <glyph glyph-name="germandbls" unicode="&#xdf;" horiz-adv-x="1346" 
d="M961 805c110.667 -18.667 192.832 -59.1689 246.499 -121.502s80.5 -148.833 80.5 -259.5c0 -136.667 -44.167 -243.5 -132.5 -320.5s-211.5 -115.5 -369.5 -115.5c-28.667 0 -59.167 1.16699 -91.5 3.5s-66.5 5.83301 -102.5 10.5l12 256
c18.667 -2.66699 36 -4.66699 52 -6s31.333 -2 46 -2c67.333 0 121.166 19.333 161.499 58s60.5 90.334 60.5 155.001c0 64 -21.667 113.5 -65 148.5s-105 52.5 -185 52.5h-27v259c80.667 2 140.834 19.833 180.501 53.5s59.5 83.5 59.5 149.5
c0 58.667 -16.667 104.834 -50 138.501s-79 50.5 -137 50.5c-68 0 -118.667 -25.833 -152 -77.5s-50 -130.5 -50 -236.5v-1001h-361v1016c0 186 45.833 322.5 137.5 409.5s235.167 130.5 430.5 130.5c164.667 0 294.834 -37.667 390.501 -113s143.5 -177.333 143.5 -306
c0 -86 -23.833 -157.5 -71.5 -214.5s-116.5 -96.167 -206.5 -117.5z" />
    <glyph glyph-name="agrave" unicode="&#xe0;" horiz-adv-x="1239" 
d="M719 479c-106 0 -182.333 -11.499 -229 -34.499s-70 -59.833 -70 -110.5c0 -36.667 12.5 -66.334 37.5 -89.001s58.167 -34 99.5 -34c65.333 0 118.833 22 160.5 66s62.5 101.333 62.5 172v30h-61zM1120 551.001v-551h-313l-8 164
c-42.667 -60.667 -94.167 -105.167 -154.5 -133.5s-133.166 -42.5 -218.499 -42.5c-106.667 0 -191.667 30.333 -255 91s-95 141.667 -95 243c0 116.667 46 203.167 138 259.5s233.667 84.5 425 84.5h141v14c0 57.333 -22 101.333 -66 132s-108 46 -192 46
c-41.333 0 -88.333 -7.33301 -141 -22s-109.334 -36 -170.001 -64l-6 238c58.667 24.667 122.167 43 190.5 55s143.5 18 225.5 18c172 0 298.167 -42.833 378.5 -128.5s120.5 -220.167 120.5 -403.5zM316 1563h287l192 -371h-154z" />
    <glyph glyph-name="aacute" unicode="&#xe1;" horiz-adv-x="1239" 
d="M719 479c-106 0 -182.333 -11.499 -229 -34.499s-70 -59.833 -70 -110.5c0 -36.667 12.5 -66.334 37.5 -89.001s58.167 -34 99.5 -34c65.333 0 118.833 22 160.5 66s62.5 101.333 62.5 172v30h-61zM1120 551.001v-551h-313l-8 164
c-42.667 -60.667 -94.167 -105.167 -154.5 -133.5s-133.166 -42.5 -218.499 -42.5c-106.667 0 -191.667 30.333 -255 91s-95 141.667 -95 243c0 116.667 46 203.167 138 259.5s233.667 84.5 425 84.5h141v14c0 57.333 -22 101.333 -66 132s-108 46 -192 46
c-41.333 0 -88.333 -7.33301 -141 -22s-109.334 -36 -170.001 -64l-6 238c58.667 24.667 122.167 43 190.5 55s143.5 18 225.5 18c172 0 298.167 -42.833 378.5 -128.5s120.5 -220.167 120.5 -403.5zM639 1563h287l-325 -371h-154z" />
    <glyph glyph-name="acircumflex" unicode="&#xe2;" horiz-adv-x="1239" 
d="M719 479c-106 0 -182.333 -11.499 -229 -34.499s-70 -59.833 -70 -110.5c0 -36.667 12.5 -66.334 37.5 -89.001s58.167 -34 99.5 -34c65.333 0 118.833 22 160.5 66s62.5 101.333 62.5 172v30h-61zM1120 551.001v-551h-313l-8 164
c-42.667 -60.667 -94.167 -105.167 -154.5 -133.5s-133.166 -42.5 -218.499 -42.5c-106.667 0 -191.667 30.333 -255 91s-95 141.667 -95 243c0 116.667 46 203.167 138 259.5s233.667 84.5 425 84.5h141v14c0 57.333 -22 101.333 -66 132s-108 46 -192 46
c-41.333 0 -88.333 -7.33301 -141 -22s-109.334 -36 -170.001 -64l-6 238c58.667 24.667 122.167 43 190.5 55s143.5 18 225.5 18c172 0 298.167 -42.833 378.5 -128.5s120.5 -220.167 120.5 -403.5zM492 1563h256l192 -371h-153l-166 199l-168 -199h-154z" />
    <glyph glyph-name="atilde" unicode="&#xe3;" horiz-adv-x="1239" 
d="M719 479c-106 0 -182.333 -11.499 -229 -34.499s-70 -59.833 -70 -110.5c0 -36.667 12.5 -66.334 37.5 -89.001s58.167 -34 99.5 -34c65.333 0 118.833 22 160.5 66s62.5 101.333 62.5 172v30h-61zM1120 551.001v-551h-313l-8 164
c-42.667 -60.667 -94.167 -105.167 -154.5 -133.5s-133.166 -42.5 -218.499 -42.5c-106.667 0 -191.667 30.333 -255 91s-95 141.667 -95 243c0 116.667 46 203.167 138 259.5s233.667 84.5 425 84.5h141v14c0 57.333 -22 101.333 -66 132s-108 46 -192 46
c-41.333 0 -88.333 -7.33301 -141 -22s-109.334 -36 -170.001 -64l-6 238c58.667 24.667 122.167 43 190.5 55s143.5 18 225.5 18c172 0 298.167 -42.833 378.5 -128.5s120.5 -220.167 120.5 -403.5zM834 1518l119 0.000976562c-20 -88.667 -47.5 -153.167 -82.5 -193.5
s-80.5 -60.5 -136.5 -60.5c-15.333 0 -29.166 0.833008 -41.499 2.5s-23.833 4.16699 -34.5 7.5l-92 26c-20 6 -34.833 10 -44.5 12s-17.5 3 -23.5 3c-22.667 0 -41.334 -6.33301 -56.001 -19s-26 -32.334 -34 -59.001h-119c18.667 84 45.5 146 80.5 186s79.833 60 134.5 60
c10.667 0 23.334 -1.33301 38.001 -4s32 -7 52 -13l95 -26c8 -2.66699 16.667 -4.66699 26 -6s19.666 -2 30.999 -2c22 0 40.333 7.16699 55 21.5s25.667 35.833 33 64.5z" />
    <glyph glyph-name="adieresis" unicode="&#xe4;" horiz-adv-x="1239" 
d="M719 479c-106 0 -182.333 -11.499 -229 -34.499s-70 -59.833 -70 -110.5c0 -36.667 12.5 -66.334 37.5 -89.001s58.167 -34 99.5 -34c65.333 0 118.833 22 160.5 66s62.5 101.333 62.5 172v30h-61zM1120 551.001v-551h-313l-8 164
c-42.667 -60.667 -94.167 -105.167 -154.5 -133.5s-133.166 -42.5 -218.499 -42.5c-106.667 0 -191.667 30.333 -255 91s-95 141.667 -95 243c0 116.667 46 203.167 138 259.5s233.667 84.5 425 84.5h141v14c0 57.333 -22 101.333 -66 132s-108 46 -192 46
c-41.333 0 -88.333 -7.33301 -141 -22s-109.334 -36 -170.001 -64l-6 238c58.667 24.667 122.167 43 190.5 55s143.5 18 225.5 18c172 0 298.167 -42.833 378.5 -128.5s120.5 -220.167 120.5 -403.5zM676 1511h252v-270h-252v270zM314 1511h250v-270h-250v270z" />
    <glyph glyph-name="aring" unicode="&#xe5;" horiz-adv-x="1239" 
d="M711 479c-102 0 -176.333 -11.833 -223 -35.5s-70 -61.5 -70 -113.5c0 -34 13 -62.333 39 -85s59.333 -34 100 -34c65.333 0 118.833 22 160.5 66s62.5 101.333 62.5 172v30h-69zM1120 551v-551h-313l-8 164c-42.667 -60.667 -94.167 -105.167 -154.5 -133.5
s-133.166 -42.5 -218.499 -42.5c-106.667 0 -191.667 30.333 -255 91s-95 141.667 -95 243c0 116.667 46 203.167 138 259.5s233.667 84.5 425 84.5h141v14c0 57.333 -22 101.333 -66 132s-108 46 -192 46c-41.333 0 -88.333 -7.33301 -141 -22s-109.334 -36 -170.001 -64
l-6 238c58.667 24.667 122.167 43 190.5 55s143.5 18 225.5 18c172 0 298.167 -42.833 378.5 -128.5s120.5 -220.167 120.5 -403.5zM616 1534c-31.333 0 -58.167 -11.166 -80.5 -33.499s-33.5 -49.5 -33.5 -81.5s11 -59 33 -81s49 -33 81 -33s59.167 11.167 81.5 33.5
s33.5 49.166 33.5 80.499c0 32 -11.167 59.167 -33.5 81.5s-49.5 33.5 -81.5 33.5zM613.999 1690c76 0 140.501 -26.333 193.501 -79s79.5 -116.667 79.5 -192c0 -76 -26.333 -140.333 -79 -193s-117.334 -79 -194.001 -79c-75.333 0 -139.166 26.167 -191.499 78.5
s-78.5 116.833 -78.5 193.5c0 76 26.167 140.167 78.5 192.5s116.166 78.5 191.499 78.5z" />
    <glyph glyph-name="ae" unicode="&#xe6;" horiz-adv-x="1933" 
d="M1135 633h421c-6.66699 70.667 -28.667 125.834 -66 165.501s-85.333 59.5 -144 59.5c-58 0 -105.667 -19.833 -143 -59.5s-60 -94.834 -68 -165.501zM780 479h-63c-104.667 0 -180.667 -11.5 -228 -34.5s-71 -59.833 -71 -110.5c0 -36 13 -65.5 39 -88.5
s59.333 -34.5 100 -34.5c65.333 0 118.833 22 160.5 66s62.5 101.333 62.5 172v30zM971 940c44 47.333 99.165 82.999 165.498 106.999s142.166 36 227.499 36c160.667 0 286.5 -50.833 377.5 -152.5s136.5 -242.5 136.5 -422.5v-88h-741
c6.66699 -68 36.334 -120.833 89.001 -158.5s123.334 -56.5 212.001 -56.5c52 0 107 7.33301 165 22s118.333 36.667 181 66v-258c-60 -21.333 -121.833 -37.333 -185.5 -48s-130.167 -16 -199.5 -16c-125.333 0 -227.666 20.833 -306.999 62.5
s-137.333 104.834 -174 189.501c-48.667 -78 -111.667 -137.333 -189 -178s-166 -61 -266 -61c-121.333 0 -216.166 29.667 -284.499 89s-102.5 141.333 -102.5 246c0 118 46 205.333 138 262s233.667 85 425 85h141v14c0 57.333 -22 101.333 -66 132s-108 46 -192 46
c-41.333 0 -88.333 -7.33301 -141 -22s-109.334 -36 -170.001 -64l-6 238c61.333 24 124 42.167 188 54.5s129 18.5 195 18.5c82 0 155.333 -12 220 -36s119 -59.667 163 -107z" />
    <glyph glyph-name="ccedilla" unicode="&#xe7;" horiz-adv-x="1067" 
d="M977 1026l-24.998 -263.999c-35.333 19.333 -70.333 33.666 -105 42.999s-69.334 14 -104.001 14c-89.333 0 -160.333 -26.333 -213 -79s-79 -124 -79 -214c0 -88 28 -158.333 84 -211s131 -79 225 -79c39.333 0 77.166 5 113.499 15s71.5 25.333 105.5 46l8 -277
c-46 -16 -96.833 -28.167 -152.5 -36.5s-116.167 -12.5 -181.5 -12.5c-170.667 0 -309.167 51 -415.5 153s-159.5 235.333 -159.5 400c0 172.667 53.667 308.667 161 408s255 149 443 149c45.333 0 92.5 -4.5 141.5 -13.5s100.167 -22.833 153.5 -41.5zM551.002 0.000976562
l114 0.000976562v-84h19c74 0 130.667 -16.5 170 -49.5s59 -80.5 59 -142.5c0 -66.667 -22 -118.167 -66 -154.5s-106.667 -54.5 -188 -54.5c-38.667 0 -82 3.83301 -130 11.5s-101.667 19.5 -161 35.5v137c54 -14.667 104.333 -25.834 151 -33.501s86.667 -11.5 120 -11.5
c28.667 0 50.167 5.83301 64.5 17.5s21.5 29.834 21.5 54.501c0 21.333 -9.5 37.166 -28.5 47.499s-49.167 15.5 -90.5 15.5c-14 0 -25 -0.166992 -33 -0.5s-15.333 -0.833008 -22 -1.5v213z" />
    <glyph glyph-name="egrave" unicode="&#xe8;" horiz-adv-x="1221" 
d="M1163 508l-0.000976562 -88.001h-739c7.33301 -68.667 37 -121.667 89 -159s122 -56 210 -56c52.667 0 108.334 7.33301 167.001 22s119 36.667 181 66v-258c-58.667 -21.333 -119.834 -37.333 -183.501 -48s-130.167 -16 -199.5 -16c-192 0 -342 50.667 -450 152
s-162 242 -162 422c0 164 49.833 294.333 149.5 391s234.167 145 403.5 145c170.667 0 302.334 -49.667 395.001 -149s139 -240.666 139 -423.999zM843.999 632.999c-7.33301 70.667 -30 126.167 -68 166.5s-86.333 60.5 -145 60.5c-58 0 -105.667 -20.167 -143 -60.5
s-60 -95.833 -68 -166.5h424zM331.999 1563h287l192 -371h-154z" />
    <glyph glyph-name="eacute" unicode="&#xe9;" horiz-adv-x="1221" 
d="M1163 508l-0.000976562 -88.001h-739c7.33301 -68.667 37 -121.667 89 -159s122 -56 210 -56c52.667 0 108.334 7.33301 167.001 22s119 36.667 181 66v-258c-58.667 -21.333 -119.834 -37.333 -183.501 -48s-130.167 -16 -199.5 -16c-192 0 -342 50.667 -450 152
s-162 242 -162 422c0 164 49.833 294.333 149.5 391s234.167 145 403.5 145c170.667 0 302.334 -49.667 395.001 -149s139 -240.666 139 -423.999zM843.999 632.999c-7.33301 70.667 -30 126.167 -68 166.5s-86.333 60.5 -145 60.5c-58 0 -105.667 -20.167 -143 -60.5
s-60 -95.833 -68 -166.5h424zM654.999 1563h287l-325 -371h-154z" />
    <glyph glyph-name="ecircumflex" unicode="&#xea;" horiz-adv-x="1221" 
d="M1163 508l-0.000976562 -88.001h-739c7.33301 -68.667 37 -121.667 89 -159s122 -56 210 -56c52.667 0 108.334 7.33301 167.001 22s119 36.667 181 66v-258c-58.667 -21.333 -119.834 -37.333 -183.501 -48s-130.167 -16 -199.5 -16c-192 0 -342 50.667 -450 152
s-162 242 -162 422c0 164 49.833 294.333 149.5 391s234.167 145 403.5 145c170.667 0 302.334 -49.667 395.001 -149s139 -240.666 139 -423.999zM843.999 632.999c-7.33301 70.667 -30 126.167 -68 166.5s-86.333 60.5 -145 60.5c-58 0 -105.667 -20.167 -143 -60.5
s-60 -95.833 -68 -166.5h424zM507.999 1563h256l192 -371h-153l-166 199l-168 -199h-154z" />
    <glyph glyph-name="edieresis" unicode="&#xeb;" horiz-adv-x="1221" 
d="M1163 508l-0.000976562 -88.001h-739c7.33301 -68.667 37 -121.667 89 -159s122 -56 210 -56c52.667 0 108.334 7.33301 167.001 22s119 36.667 181 66v-258c-58.667 -21.333 -119.834 -37.333 -183.501 -48s-130.167 -16 -199.5 -16c-192 0 -342 50.667 -450 152
s-162 242 -162 422c0 164 49.833 294.333 149.5 391s234.167 145 403.5 145c170.667 0 302.334 -49.667 395.001 -149s139 -240.666 139 -423.999zM843.999 632.999c-7.33301 70.667 -30 126.167 -68 166.5s-86.333 60.5 -145 60.5c-58 0 -105.667 -20.167 -143 -60.5
s-60 -95.833 -68 -166.5h424zM691.999 1511h252v-270h-252v270zM329.999 1511h250v-270h-250v270z" />
    <glyph glyph-name="igrave" unicode="&#xec;" horiz-adv-x="639" 
d="M139 1053h361v-1053h-361v1053zM14 1563h287l192 -371h-154z" />
    <glyph glyph-name="iacute" unicode="&#xed;" horiz-adv-x="639" 
d="M139 1053h361v-1053h-361v1053zM337 1563h287l-325 -371h-154z" />
    <glyph glyph-name="icircumflex" unicode="&#xee;" horiz-adv-x="639" 
d="M139 1053h361v-1053h-361v1053zM190 1563h256l192 -371h-153l-166 199l-168 -199h-154z" />
    <glyph glyph-name="idieresis" unicode="&#xef;" horiz-adv-x="639" 
d="M139 1053h361v-1053h-361v1053zM374 1511h252v-270h-252v270zM12 1511h250v-270h-250v270z" />
    <glyph glyph-name="eth" unicode="&#xf0;" horiz-adv-x="1364" 
d="M682 786c-65.333 0 -118.168 -26.332 -158.501 -78.999s-60.5 -121.667 -60.5 -207c0 -84.667 20.333 -153.334 61 -206.001s93.334 -79 158.001 -79c65.333 0 117.833 26 157.5 78s59.5 121 59.5 207c0 86.667 -19.833 156 -59.5 208s-92.167 78 -157.5 78z
M671.998 1532c14.667 -16.667 30.8301 -33.501 48.4971 -50.501l55.5 -51.5l209 102l84 -143l-186 -89c125.333 -144 218.666 -282.167 279.999 -414.5s92 -261.5 92 -387.5c0 -164.667 -50.667 -293.667 -152 -387s-241.666 -140 -420.999 -140
s-319.666 46.667 -420.999 140s-152 222.333 -152 387c0 160.667 49.667 288.834 149 384.501s232.333 143.5 399 143.5c23.333 0 46.333 -1.16699 69 -3.5s45.334 -5.83301 68.001 -10.5c-21.333 38 -42.166 72.5 -62.499 103.5s-39.5 57.833 -57.5 80.5l-219 -104l-74 145
l192 94c-26 31.333 -56.5 63.5 -91.5 96.5s-75.5 67.833 -121.5 104.5h312z" />
    <glyph glyph-name="ntilde" unicode="&#xf1;" horiz-adv-x="1360" 
d="M1241 616l0.00195312 -616h-358v541c0 82.667 -14.667 144.167 -44 184.5s-74 60.5 -134 60.5c-62.667 0 -112.834 -25.333 -150.501 -76s-56.5 -118.667 -56.5 -204v-506h-361v1053h328v-189c41.333 70.667 94.666 124.5 159.999 161.5s139 55.5 221 55.5
c128.667 0 226.667 -39.5 294 -118.5s101 -194.5 101 -346.5zM915.002 1518l119 0.000976562c-20 -88.667 -47.5 -153.167 -82.5 -193.5s-80.5 -60.5 -136.5 -60.5c-15.333 0 -29.166 0.833008 -41.499 2.5s-23.833 4.16699 -34.5 7.5l-92 26c-20 6 -34.833 10 -44.5 12
s-17.5 3 -23.5 3c-22.667 0 -41.334 -6.33301 -56.001 -19s-26 -32.334 -34 -59.001h-119c18.667 84 45.5 146 80.5 186s79.833 60 134.5 60c10.667 0 23.334 -1.33301 38.001 -4s32 -7 52 -13l95 -26c8 -2.66699 16.667 -4.66699 26 -6s19.666 -2 30.999 -2
c22 0 40.333 7.16699 55 21.5s25.667 35.833 33 64.5z" />
    <glyph glyph-name="ograve" unicode="&#xf2;" horiz-adv-x="1364" 
d="M680 829c-68 0 -123.167 -27.5 -165.5 -82.5s-63.5 -127.833 -63.5 -218.5c0 -89.333 21.167 -161.5 63.5 -216.5s97.5 -82.5 165.5 -82.5c69.333 0 124.833 27.167 166.5 81.5s62.5 126.833 62.5 217.5c0 91.333 -20.833 164.333 -62.5 219s-97.167 82 -166.5 82z
M680 1081c190 0 338.5 -49 445.5 -147s160.5 -234 160.5 -408c0 -172.667 -53.5 -308 -160.5 -406s-255.5 -147 -445.5 -147c-189.333 0 -337.333 49 -444 147s-160 233.333 -160 406c0 174 53.333 310 160 408s254.667 147 444 147zM377 1563h287l192 -371h-154z" />
    <glyph glyph-name="oacute" unicode="&#xf3;" horiz-adv-x="1364" 
d="M680 829c-68 0 -123.167 -27.5 -165.5 -82.5s-63.5 -127.833 -63.5 -218.5c0 -89.333 21.167 -161.5 63.5 -216.5s97.5 -82.5 165.5 -82.5c69.333 0 124.833 27.167 166.5 81.5s62.5 126.833 62.5 217.5c0 91.333 -20.833 164.333 -62.5 219s-97.167 82 -166.5 82z
M680 1081c190 0 338.5 -49 445.5 -147s160.5 -234 160.5 -408c0 -172.667 -53.5 -308 -160.5 -406s-255.5 -147 -445.5 -147c-189.333 0 -337.333 49 -444 147s-160 233.333 -160 406c0 174 53.333 310 160 408s254.667 147 444 147zM700 1563h287l-325 -371h-154z" />
    <glyph glyph-name="ocircumflex" unicode="&#xf4;" horiz-adv-x="1364" 
d="M680 829c-68 0 -123.167 -27.5 -165.5 -82.5s-63.5 -127.833 -63.5 -218.5c0 -89.333 21.167 -161.5 63.5 -216.5s97.5 -82.5 165.5 -82.5c69.333 0 124.833 27.167 166.5 81.5s62.5 126.833 62.5 217.5c0 91.333 -20.833 164.333 -62.5 219s-97.167 82 -166.5 82z
M680 1081c190 0 338.5 -49 445.5 -147s160.5 -234 160.5 -408c0 -172.667 -53.5 -308 -160.5 -406s-255.5 -147 -445.5 -147c-189.333 0 -337.333 49 -444 147s-160 233.333 -160 406c0 174 53.333 310 160 408s254.667 147 444 147zM553 1563h256l192 -371h-153l-166 199
l-168 -199h-154z" />
    <glyph glyph-name="otilde" unicode="&#xf5;" horiz-adv-x="1364" 
d="M680 829c-68 0 -123.167 -27.5 -165.5 -82.5s-63.5 -127.833 -63.5 -218.5c0 -89.333 21.167 -161.5 63.5 -216.5s97.5 -82.5 165.5 -82.5c69.333 0 124.833 27.167 166.5 81.5s62.5 126.833 62.5 217.5c0 91.333 -20.833 164.333 -62.5 219s-97.167 82 -166.5 82z
M680 1081c190 0 338.5 -49 445.5 -147s160.5 -234 160.5 -408c0 -172.667 -53.5 -308 -160.5 -406s-255.5 -147 -445.5 -147c-189.333 0 -337.333 49 -444 147s-160 233.333 -160 406c0 174 53.333 310 160 408s254.667 147 444 147zM895 1518l119 0.000976562
c-20 -88.667 -47.5 -153.167 -82.5 -193.5s-80.5 -60.5 -136.5 -60.5c-15.333 0 -29.166 0.833008 -41.499 2.5s-23.833 4.16699 -34.5 7.5l-92 26c-20 6 -34.833 10 -44.5 12s-17.5 3 -23.5 3c-22.667 0 -41.334 -6.33301 -56.001 -19s-26 -32.334 -34 -59.001h-119
c18.667 84 45.5 146 80.5 186s79.833 60 134.5 60c10.667 0 23.334 -1.33301 38.001 -4s32 -7 52 -13l95 -26c8 -2.66699 16.667 -4.66699 26 -6s19.666 -2 30.999 -2c22 0 40.333 7.16699 55 21.5s25.667 35.833 33 64.5z" />
    <glyph glyph-name="odieresis" unicode="&#xf6;" horiz-adv-x="1364" 
d="M680 829c-68 0 -123.167 -27.5 -165.5 -82.5s-63.5 -127.833 -63.5 -218.5c0 -89.333 21.167 -161.5 63.5 -216.5s97.5 -82.5 165.5 -82.5c69.333 0 124.833 27.167 166.5 81.5s62.5 126.833 62.5 217.5c0 91.333 -20.833 164.333 -62.5 219s-97.167 82 -166.5 82z
M680 1081c190 0 338.5 -49 445.5 -147s160.5 -234 160.5 -408c0 -172.667 -53.5 -308 -160.5 -406s-255.5 -147 -445.5 -147c-189.333 0 -337.333 49 -444 147s-160 233.333 -160 406c0 174 53.333 310 160 408s254.667 147 444 147zM737 1511h252v-270h-252v270zM375 1511
h250v-270h-250v270z" />
    <glyph glyph-name="divide" unicode="&#xf7;" horiz-adv-x="1706" 
d="M854 371c45.333 0 84 -16.167 116 -48.5s48 -71.5 48 -117.5c0 -45.333 -15.833 -84 -47.5 -116s-70.5 -48 -116.5 -48s-85.167 16 -117.5 48s-48.5 70.667 -48.5 116s16.333 84.333 49 117s71.667 49 117 49zM254 727h1198v-231h-1198v231zM854 1182
c44.667 0 83.167 -16.333 115.5 -49s48.5 -71.667 48.5 -117s-16.167 -84 -48.5 -116s-71.5 -48 -117.5 -48s-84.833 16 -116.5 48s-47.5 70.667 -47.5 116s16.333 84.333 49 117s71.667 49 117 49z" />
    <glyph glyph-name="oslash" unicode="&#xf8;" horiz-adv-x="1364" 
d="M922 639l-374.999 -381c21.333 -14.667 42.666 -25.5 63.999 -32.5s44.333 -10.5 69 -10.5c78 0 140.167 29.833 186.5 89.5s69.5 140.5 69.5 242.5c0 11.333 -1 23.5 -3 36.5s-5.66699 31.5 -11 55.5zM815.001 803c-22.667 14.667 -45.167 25.5 -67.5 32.5
s-44.833 10.5 -67.5 10.5c-74 0 -134.5 -29.333 -181.5 -88s-70.5 -134 -70.5 -226c0 -14.667 1.16699 -30.667 3.5 -48s5.83301 -38 10.5 -62zM1163 1169l145.998 -139.001l-138 -143c38.667 -48 67.5 -102 86.5 -162s28.5 -126.333 28.5 -199
c0 -172.667 -53.5 -308 -160.5 -406s-255.5 -147 -445.5 -147c-64.667 0 -124.167 5.66699 -178.5 17s-104.166 28.333 -149.499 51l-149 -156l-148 144l135 143c-38 46.667 -66.5 99.5 -85.5 158.5s-28.5 124.167 -28.5 195.5c0 174 53.333 310 160 408
s254.667 147 444 147c62.667 0 121.334 -5.66699 176.001 -17s106 -28.666 154 -51.999z" />
    <glyph glyph-name="ugrave" unicode="&#xf9;" horiz-adv-x="1360" 
d="M117 1053l360 0.000976562v-531c0 -82.667 14.667 -144.334 44 -185.001s74 -61 134 -61c68 0 119.5 27.667 154.5 83s52.5 136.333 52.5 243v451h361v-1053h-328v197c-41.333 -70 -94.5 -123.333 -159.5 -160s-138.833 -55 -221.5 -55
c-129.333 0 -227.833 39.5 -295.5 118.5s-101.5 194.167 -101.5 345.5v607zM375 1563h287l192 -371h-154z" />
    <glyph glyph-name="uacute" unicode="&#xfa;" horiz-adv-x="1360" 
d="M117 1053l360 0.000976562v-531c0 -82.667 14.667 -144.334 44 -185.001s74 -61 134 -61c68 0 119.5 27.667 154.5 83s52.5 136.333 52.5 243v451h361v-1053h-328v197c-41.333 -70 -94.5 -123.333 -159.5 -160s-138.833 -55 -221.5 -55
c-129.333 0 -227.833 39.5 -295.5 118.5s-101.5 194.167 -101.5 345.5v607zM698 1563h287l-325 -371h-154z" />
    <glyph glyph-name="ucircumflex" unicode="&#xfb;" horiz-adv-x="1360" 
d="M117 1053l360 0.000976562v-531c0 -82.667 14.667 -144.334 44 -185.001s74 -61 134 -61c68 0 119.5 27.667 154.5 83s52.5 136.333 52.5 243v451h361v-1053h-328v197c-41.333 -70 -94.5 -123.333 -159.5 -160s-138.833 -55 -221.5 -55
c-129.333 0 -227.833 39.5 -295.5 118.5s-101.5 194.167 -101.5 345.5v607zM551 1563h256l192 -371h-153l-166 199l-168 -199h-154z" />
    <glyph glyph-name="udieresis" unicode="&#xfc;" horiz-adv-x="1360" 
d="M117 1053l360 0.000976562v-531c0 -82.667 14.667 -144.334 44 -185.001s74 -61 134 -61c68 0 119.5 27.667 154.5 83s52.5 136.333 52.5 243v451h361v-1053h-328v197c-41.333 -70 -94.5 -123.333 -159.5 -160s-138.833 -55 -221.5 -55
c-129.333 0 -227.833 39.5 -295.5 118.5s-101.5 194.167 -101.5 345.5v607zM735 1511h252v-270h-252v270zM373 1511h250v-270h-250v270z" />
    <glyph glyph-name="yacute" unicode="&#xfd;" horiz-adv-x="1225" 
d="M25 1053h388.999l233 -736l221 736h363l-412 -1028c-40 -100 -72.667 -173.5 -98 -220.5s-51.333 -84.167 -78 -111.5c-46 -47.333 -98 -82.333 -156 -105s-123.333 -34 -196 -34c-26.667 0 -56 1.5 -88 4.5s-67.333 7.5 -106 13.5l32 270
c20.667 -6.66699 40.667 -11.667 60 -15s38.333 -5 57 -5c49.333 0 91.333 11.5 126 34.5s64.334 59.167 89.001 108.5zM629.999 1563h287l-325 -371h-154z" />
    <glyph glyph-name="thorn" unicode="&#xfe;" horiz-adv-x="1399" 
d="M723 811c-70 0 -124.999 -25.332 -164.999 -75.999s-60 -120.334 -60 -209.001c0 -86 19.667 -154.167 59 -204.5s92.666 -75.5 159.999 -75.5c68 0 122.167 26 162.5 78s60.5 123 60.5 213c0 82.667 -19.833 149 -59.5 199s-92.167 75 -157.5 75zM137.001 1536h361v-633
c38.667 58 87.5 102.167 146.5 132.5s124.167 45.5 195.5 45.5c142 0 256.333 -50 343 -150s130 -233 130 -399s-43.833 -301 -131.5 -405s-200.167 -156 -337.5 -156c-73.333 0 -138.833 14.667 -196.5 44s-107.5 73.333 -149.5 132v-575h-361v1964z" />
    <glyph glyph-name="ydieresis" unicode="&#xff;" horiz-adv-x="1225" 
d="M25 1053h388.999l233 -736l221 736h363l-412 -1028c-40 -100 -72.667 -173.5 -98 -220.5s-51.333 -84.167 -78 -111.5c-46 -47.333 -98 -82.333 -156 -105s-123.333 -34 -196 -34c-26.667 0 -56 1.5 -88 4.5s-67.333 7.5 -106 13.5l32 270
c20.667 -6.66699 40.667 -11.667 60 -15s38.333 -5 57 -5c49.333 0 91.333 11.5 126 34.5s64.334 59.167 89.001 108.5zM666.999 1511h252v-270h-252v270zM304.999 1511h250v-270h-250v270z" />
    <glyph glyph-name="Cacute" unicode="&#x106;" horiz-adv-x="1399" 
d="M1311 1378l-33 -297c-53.333 32 -108.333 55.833 -165 71.5s-115 23.5 -175 23.5c-142 0 -255 -41.333 -339 -124s-126 -193.667 -126 -333c0 -140 42.833 -251.5 128.5 -334.5s199.834 -124.5 342.501 -124.5c56 0 113.167 6.83301 171.5 20.5
s117.166 34.167 176.499 61.5l23 -319c-68 -18.667 -136 -32.667 -204 -42s-136.667 -14 -206 -14c-258 0 -459 66.167 -603 198.5s-216 316.833 -216 553.5c0 226 71 405.333 213 538s334.667 199 578 199c81.333 0 158.5 -6.5 231.5 -19.5s140.5 -32.5 202.5 -58.5z
M860 1938h287l-325 -371h-154z" />
    <glyph glyph-name="cacute" unicode="&#x107;" horiz-adv-x="1067" 
d="M977 1026l-24.998 -263.999c-35.333 19.333 -70.333 33.666 -105 42.999s-69.334 14 -104.001 14c-89.333 0 -160.333 -26.333 -213 -79s-79 -124 -79 -214c0 -88 28 -158.333 84 -211s131 -79 225 -79c39.333 0 77.166 5 113.499 15s71.5 25.333 105.5 46l8 -277
c-46 -16 -96.833 -28.167 -152.5 -36.5s-116.167 -12.5 -181.5 -12.5c-170.667 0 -309.167 51 -415.5 153s-159.5 235.333 -159.5 400c0 172.667 53.667 308.667 161 408s255 149 443 149c45.333 0 92.5 -4.5 141.5 -13.5s100.167 -22.833 153.5 -41.5zM643.002 1563h287
l-325 -371h-154z" />
    <glyph glyph-name="Ccaron" unicode="&#x10c;" horiz-adv-x="1399" 
d="M1311 1378l-33 -297c-53.333 32 -108.333 55.833 -165 71.5s-115 23.5 -175 23.5c-142 0 -255 -41.333 -339 -124s-126 -193.667 -126 -333c0 -140 42.833 -251.5 128.5 -334.5s199.834 -124.5 342.501 -124.5c56 0 113.167 6.83301 171.5 20.5
s117.166 34.167 176.499 61.5l23 -319c-68 -18.667 -136 -32.667 -204 -42s-136.667 -14 -206 -14c-258 0 -459 66.167 -603 198.5s-216 316.833 -216 553.5c0 226 71 405.333 213 538s334.667 199 578 199c81.333 0 158.5 -6.5 231.5 -19.5s140.5 -32.5 202.5 -58.5z
M520 1938h154l168 -199l166 199h153l-192 -371h-256z" />
    <glyph glyph-name="ccaron" unicode="&#x10d;" horiz-adv-x="1067" 
d="M977 1026l-24.998 -263.999c-35.333 19.333 -70.333 33.666 -105 42.999s-69.334 14 -104.001 14c-89.333 0 -160.333 -26.333 -213 -79s-79 -124 -79 -214c0 -88 28 -158.333 84 -211s131 -79 225 -79c39.333 0 77.166 5 113.499 15s71.5 25.333 105.5 46l8 -277
c-46 -16 -96.833 -28.167 -152.5 -36.5s-116.167 -12.5 -181.5 -12.5c-170.667 0 -309.167 51 -415.5 153s-159.5 235.333 -159.5 400c0 172.667 53.667 308.667 161 408s255 149 443 149c45.333 0 92.5 -4.5 141.5 -13.5s100.167 -22.833 153.5 -41.5zM303.002 1563h154
l168 -199l166 199h153l-192 -371h-256z" />
    <glyph glyph-name="dcroat" unicode="&#x111;" horiz-adv-x="1421" 
d="M672 817c-61.333 0 -111.833 -26.667 -151.5 -80s-59.5 -122.333 -59.5 -207s19.833 -152.167 59.5 -202.5s92.834 -75.5 159.501 -75.5c69.333 0 123.833 25 163.5 75s59.5 119.333 59.5 208c0 86 -20.833 154.5 -62.5 205.5s-97.834 76.5 -168.501 76.5zM905 1536
l361.002 -0.000976562v-158h133v-161h-133v-1217h-324v211c-40.667 -74 -93.667 -130.333 -159 -169s-139.333 -58 -222 -58c-140 0 -253.167 51.167 -339.5 153.5s-129.5 236.833 -129.5 403.5c0 164.667 42.167 295.834 126.5 393.501s197.166 146.5 338.499 146.5
c74 0 140.167 -14.5 198.5 -43.5s108.166 -72.5 149.499 -130.5v310h-317v161h317v158z" />
    <glyph glyph-name="Gbreve" unicode="&#x11e;" horiz-adv-x="1554" 
d="M1393 1389l-32.998 -294.999c-58 32.667 -118.667 57.167 -182 73.5s-128.333 24.5 -195 24.5c-155.333 0 -277.833 -43 -367.5 -129s-134.5 -203.333 -134.5 -352c0 -143.333 40 -257.333 120 -342s187.667 -127 323 -127c28.667 0 55 1.33301 79 4
s46.667 6.66699 68 12v297h-219v268h571v-792c-74.667 -21.333 -152.334 -37.333 -233.001 -48s-163.334 -16 -248.001 -16c-276.667 0 -486.834 62.333 -630.501 187s-215.5 306.667 -215.5 546s72.833 425.5 218.5 558.5s350.167 199.5 613.5 199.5
c78.667 0 156.834 -5.83301 234.501 -17.5s154.5 -28.834 230.5 -51.501zM463.002 1905h131.001c4 -48 20.833 -83.167 50.5 -105.5s74.167 -33.5 133.5 -33.5s104 11.5 134 34.5s46.333 57.833 49 104.5h130c-8 -106 -37.167 -183.667 -87.5 -233s-125.5 -74 -225.5 -74
s-175.833 25.167 -227.5 75.5s-80.834 127.5 -87.501 231.5z" />
    <glyph glyph-name="gbreve" unicode="&#x11f;" horiz-adv-x="1374" 
d="M672 811c-64.667 0 -116.667 -24.332 -156 -72.999s-59 -113 -59 -193s19.667 -144 59 -192s91.333 -72 156 -72s117 24.167 157 72.5s60 112.166 60 191.499s-20 143.5 -60 192.5s-92.333 73.5 -157 73.5zM920 883.001l0.000976562 170.006h333v-912
c0 -194.667 -52 -340.834 -156 -438.501s-259.333 -146.5 -466 -146.5c-78 0 -152.167 5.66699 -222.5 17s-136.833 28.666 -199.5 51.999l20 269c57.333 -28.667 115.833 -50.334 175.5 -65.001s118.167 -22 175.5 -22c103.333 0 182.333 23.833 237 71.5
s82 116.167 82 205.5v98c-46.667 -58.667 -99 -102.334 -157 -131.001s-123.667 -43 -197 -43c-138.667 0 -250.834 48.833 -336.501 146.5s-128.5 226.5 -128.5 386.5c0 161.333 44.167 291.666 132.5 390.999s203.166 149 344.499 149
c74.667 0 141.834 -16.333 201.501 -49s113.5 -82.334 161.5 -149.001zM373.001 1530.01h131.001c4 -48 20.833 -83.167 50.5 -105.5s74.167 -33.5 133.5 -33.5s104 11.5 134 34.5s46.333 57.833 49 104.5h130c-8 -106 -37.167 -183.667 -87.5 -233s-125.5 -74 -225.5 -74
s-175.833 25.167 -227.5 75.5s-80.834 127.5 -87.501 231.5z" />
    <glyph glyph-name="Idotaccent" unicode="&#x130;" horiz-adv-x="653" 
d="M137 1421h379v-1421h-379v1421zM199 1893h260v-281h-260v281z" />
    <glyph glyph-name="dotlessi" unicode="&#x131;" horiz-adv-x="639" 
d="M139 1053h361v-1053h-361v1053z" />
    <glyph glyph-name="Lslash" unicode="&#x141;" horiz-adv-x="1176" 
d="M184 1421h379v-452l287 196v-245l-287 -199v-440h572v-281h-951v551l-137 -98v245l137 101v622z" />
    <glyph glyph-name="lslash" unicode="&#x142;" horiz-adv-x="688" 
d="M186 1536h361v-547l139 96v-194l-139 -96v-795h-361v614l-139 -96v195l139 96v727z" />
    <glyph glyph-name="OE" unicode="&#x152;" horiz-adv-x="2126" 
d="M1047 1153c-40 9.33301 -77.999 16.5 -113.999 21.5s-69 7.5 -99 7.5c-119.333 0 -210.333 -39.833 -273 -119.5s-94 -195.5 -94 -347.5s31.333 -268.167 94 -348.5s152.667 -120.5 270 -120.5c27.333 0 59.166 2.16699 95.499 6.5s76.5 10.833 120.5 19.5v881z
M1325 1421l673.999 0.000976562v-264h-584v-289h549v-270h-549v-324h608v-274h-759c-72 0 -162.667 -3.33301 -272 -10s-182.666 -10 -219.999 -10c-218 0 -386.833 63.5 -506.5 190.5s-179.5 307.167 -179.5 540.5c0 241.333 61.833 424.166 185.5 548.499
s305.5 186.5 545.5 186.5c52.667 0 135.5 -4.16699 248.5 -12.5s199.5 -12.5 259.5 -12.5z" />
    <glyph glyph-name="oe" unicode="&#x153;" horiz-adv-x="2052" 
d="M451 528c0 -89.333 21.167 -161.5 63.5 -216.5s97.5 -82.5 165.5 -82.5c69.333 0 124.833 27.167 166.5 81.5s62.5 126.833 62.5 217.5c0 91.333 -20.833 164.333 -62.5 219s-97.167 82 -166.5 82c-68 0 -123.167 -27.667 -165.5 -83s-63.5 -128 -63.5 -218zM1253 633
h422.002c-6.66699 71.333 -28.834 127 -66.501 167s-85.834 60 -144.501 60c-57.333 0 -104.833 -20.167 -142.5 -60.5s-60.5 -95.833 -68.5 -166.5zM1087 940c44 48 98.333 83.501 163 106.501s141.667 34.5 231 34.5c161.333 0 287.666 -50.667 378.999 -152
s137 -241.666 137 -420.999v-88h-742c7.33301 -68.667 37 -121.667 89 -159s122 -56 210 -56c52.667 0 108.334 7.33301 167.001 22s119.334 36.667 182.001 66v-258c-58.667 -21.333 -119.334 -37.333 -182.001 -48s-127.667 -16 -195 -16
c-104 0 -193.167 12.833 -267.5 38.5s-133.5 64.167 -177.5 115.5c-54 -50.667 -116.333 -89 -187 -115s-149 -39 -235 -39c-178 0 -319.667 50.167 -425 150.5s-158 235.166 -158 404.499c0 174 53.333 310 160 408s254.667 147 444 147c86 0 163.167 -11.833 231.5 -35.5
s126.833 -58.834 175.5 -105.501z" />
    <glyph glyph-name="Scedilla" unicode="&#x15e;" horiz-adv-x="1229" 
d="M1081 1405l-27.999 -293c-58 24.667 -113.667 43.167 -167 55.5s-105 18.5 -155 18.5c-76.667 0 -136.5 -12.167 -179.5 -36.5s-64.5 -57.833 -64.5 -100.5c0 -30 11 -56.167 33 -78.5s55 -40.833 99 -55.5l63 -20c162.667 -52.667 270.667 -99 324 -139
c50 -38.667 86.667 -82.834 110 -132.501s35 -107.834 35 -174.501c0 -156.667 -52 -276.167 -156 -358.5s-254.667 -123.5 -452 -123.5c-71.333 0 -142.833 5 -214.5 15s-142.834 25 -213.501 45l32 317c66.667 -30 131.5 -52.833 194.5 -68.5s122.5 -23.5 178.5 -23.5
c74.667 0 133.667 14 177 42s65 66 65 114c0 59.333 -69.333 113 -208 161c-33.333 11.333 -59 20.333 -77 27c-135.333 48.667 -232 105.167 -290 169.5s-87 146.5 -87 246.5c0 142.667 51 252.334 153 329.001s248.333 115 439 115c70 0 137.333 -4.16699 202 -12.5
s127 -21.166 187 -38.499zM557.001 0l114 0.000976562v-84h19c74 0 130.667 -16.5 170 -49.5s59 -80.5 59 -142.5c0 -66.667 -22 -118.167 -66 -154.5s-106.667 -54.5 -188 -54.5c-38.667 0 -82 3.83301 -130 11.5s-101.667 19.5 -161 35.5v137
c54 -14.667 104.333 -25.834 151 -33.501s86.667 -11.5 120 -11.5c28.667 0 50.167 5.83301 64.5 17.5s21.5 29.834 21.5 54.501c0 21.333 -9.5 37.166 -28.5 47.499s-49.167 15.5 -90.5 15.5c-14 0 -25 -0.166992 -33 -0.5s-15.333 -0.833008 -22 -1.5v213z" />
    <glyph glyph-name="scedilla" unicode="&#x15f;" 
d="M905 1026l-35.002 -253.998c-48 27.333 -96.5 48.166 -145.5 62.499s-95.833 21.5 -140.5 21.5c-44 0 -78 -7.83301 -102 -23.5s-36 -37.834 -36 -66.501c0 -37.333 49 -69.333 147 -96l73 -21c112 -33.333 190.167 -74 234.5 -122s66.5 -113.667 66.5 -197
c0 -111.333 -43.333 -199 -130 -263s-206 -96 -358 -96c-64.667 0 -128.5 5 -191.5 15s-124.833 25 -185.5 45l23 270c50.667 -26 103.334 -45.833 158.001 -59.5s110 -20.5 166 -20.5c52.667 0 92.334 7.16699 119.001 21.5s40 35.833 40 64.5c0 42.667 -54 80 -162 112
l-63 19c-110 36 -186.667 76.167 -230 120.5s-65 102.5 -65 174.5c0 110 43.333 195.5 130 256.5s208.667 91.5 366 91.5c51.333 0 104 -4.66699 158 -14s108.333 -23 163 -41zM454.998 0.00195312l114 0.000976562v-84h19c74 0 130.667 -16.5 170 -49.5s59 -80.5 59 -142.5
c0 -66.667 -22 -118.167 -66 -154.5s-106.667 -54.5 -188 -54.5c-38.667 0 -82 3.83301 -130 11.5s-101.667 19.5 -161 35.5v137c54 -14.667 104.333 -25.834 151 -33.501s86.667 -11.5 120 -11.5c28.667 0 50.167 5.83301 64.5 17.5s21.5 29.834 21.5 54.501
c0 21.333 -9.5 37.166 -28.5 47.499s-49.167 15.5 -90.5 15.5c-14 0 -25 -0.166992 -33 -0.5s-15.333 -0.833008 -22 -1.5v213z" />
    <glyph glyph-name="Scaron" unicode="&#x160;" horiz-adv-x="1229" 
d="M1081 1405l-27.999 -293c-58 24.667 -113.667 43.167 -167 55.5s-105 18.5 -155 18.5c-76.667 0 -136.5 -12.167 -179.5 -36.5s-64.5 -57.833 -64.5 -100.5c0 -30 11 -56.167 33 -78.5s55 -40.833 99 -55.5l63 -20c162.667 -52.667 270.667 -99 324 -139
c50 -38.667 86.667 -82.834 110 -132.501s35 -107.834 35 -174.501c0 -156.667 -52 -276.167 -156 -358.5s-254.667 -123.5 -452 -123.5c-71.333 0 -142.833 5 -214.5 15s-142.834 25 -213.501 45l32 317c66.667 -30 131.5 -52.833 194.5 -68.5s122.5 -23.5 178.5 -23.5
c74.667 0 133.667 14 177 42s65 66 65 114c0 59.333 -69.333 113 -208 161c-33.333 11.333 -59 20.333 -77 27c-135.333 48.667 -232 105.167 -290 169.5s-87 146.5 -87 246.5c0 142.667 51 252.334 153 329.001s248.333 115 439 115c70 0 137.333 -4.16699 202 -12.5
s127 -21.166 187 -38.499zM292.001 1938h154l168 -199l166 199h153l-192 -371h-256z" />
    <glyph glyph-name="scaron" unicode="&#x161;" 
d="M905 1026l-35.002 -253.998c-48 27.333 -96.5 48.166 -145.5 62.499s-95.833 21.5 -140.5 21.5c-44 0 -78 -7.83301 -102 -23.5s-36 -37.834 -36 -66.501c0 -37.333 49 -69.333 147 -96l73 -21c112 -33.333 190.167 -74 234.5 -122s66.5 -113.667 66.5 -197
c0 -111.333 -43.333 -199 -130 -263s-206 -96 -358 -96c-64.667 0 -128.5 5 -191.5 15s-124.833 25 -185.5 45l23 270c50.667 -26 103.334 -45.833 158.001 -59.5s110 -20.5 166 -20.5c52.667 0 92.334 7.16699 119.001 21.5s40 35.833 40 64.5c0 42.667 -54 80 -162 112
l-63 19c-110 36 -186.667 76.167 -230 120.5s-65 102.5 -65 174.5c0 110 43.333 195.5 130 256.5s208.667 91.5 366 91.5c51.333 0 104 -4.66699 158 -14s108.333 -23 163 -41zM189.998 1563h154l168 -199l166 199h153l-192 -371h-256z" />
    <glyph glyph-name="Ydieresis" unicode="&#x178;" horiz-adv-x="1294" 
d="M-55 1421h430l284 -600l283 600h408l-516 -889v-532h-379v528zM702 1886h252v-270h-252v270zM340 1886h250v-270h-250v270z" />
    <glyph glyph-name="Zcaron" unicode="&#x17d;" horiz-adv-x="1251" 
d="M115 1421h1079v-301l-715 -846h715v-274h-1100v317l705 830h-684v274zM305 1938h154l168 -199l166 199h153l-192 -371h-256z" />
    <glyph glyph-name="zcaron" unicode="&#x17e;" horiz-adv-x="1030" 
d="M94 1053h883v-279l-520 -514h520v-260h-897v303l502 488h-488v262zM194 1563h154l168 -199l166 199h153l-192 -371h-256z" />
    <glyph glyph-name="florin" unicode="&#x192;" horiz-adv-x="1262" 
d="M1188 1421l-49.001 -244.999c-20.667 14 -40.5 25 -59.5 33s-36.167 12 -51.5 12c-33.333 0 -61.5 -15.833 -84.5 -47.5s-41.167 -80.167 -54.5 -145.5l-33 -151h209v-250h-262l-105 -492c-27.333 -130.667 -50.666 -223.5 -69.999 -278.5s-41 -97.167 -65 -126.5
c-42 -52.667 -88.833 -90.834 -140.5 -114.501s-113.834 -35.5 -186.501 -35.5c-37.333 0 -74.166 4 -110.499 12s-72.166 19.667 -107.499 35l43 238c24.667 -14 46.667 -24.667 66 -32s35.666 -11 48.999 -11c38 0 67.333 13.667 88 41s40 82 58 164l127 600h-216v250h269
l53 249c25.333 122 68.5 211.333 129.5 268s144.833 85 251.5 85c38.667 0 78.667 -4.66699 120 -14s85.333 -24 132 -44z" />
    <glyph glyph-name="circumflex" unicode="&#x2c6;" 
d="M383 1563h256l192 -371h-153l-166 199l-168 -199h-154z" />
    <glyph glyph-name="caron" unicode="&#x2c7;" 
d="M190 1563h154l168 -199l166 199h153l-192 -371h-256z" />
    <glyph glyph-name="breve" unicode="&#x2d8;" 
d="M197 1530h131.001c4 -48 20.833 -83.167 50.5 -105.5s74.167 -33.5 133.5 -33.5s104 11.5 134 34.5s46.333 57.833 49 104.5h130c-8 -106 -37.167 -183.667 -87.5 -233s-125.5 -74 -225.5 -74s-175.833 25.167 -227.5 75.5s-80.834 127.5 -87.501 231.5z" />
    <glyph glyph-name="dotaccent" unicode="&#x2d9;" 
d="M383 1518h260v-281h-260v281z" />
    <glyph glyph-name="ring" unicode="&#x2da;" 
d="M512 1559c-32 0 -59.167 -11.333 -81.5 -34s-33.5 -49.667 -33.5 -81c0 -32 11 -59.167 33 -81.5s49.333 -33.5 82 -33.5c32 0 59.167 11.167 81.5 33.5s33.5 49.5 33.5 81.5c0 31.333 -11.167 58.333 -33.5 81s-49.5 34 -81.5 34zM512 1714
c76 0 140.333 -26.333 193 -79s79 -116.334 79 -191.001c0 -76 -26.167 -140 -78.5 -192s-116.833 -78 -193.5 -78c-76 0 -140 25.833 -192 77.5s-78 115.834 -78 192.501c0 76 26 140 78 192s116 78 192 78z" />
    <glyph glyph-name="ogonek" unicode="&#x2db;" 
d="M524 0h109c-42 -37.333 -72.333 -71.5 -91 -102.5s-28 -62.5 -28 -94.5c0 -27.333 6.16699 -47.333 18.5 -60s31.5 -19 57.5 -19h102v-191h-74c-103.333 0 -176.833 15.333 -220.5 46s-65.5 81 -65.5 151c0 50.667 15.5 97.667 46.5 141s79.5 86.333 145.5 129z" />
    <glyph glyph-name="tilde" unicode="&#x2dc;" 
d="M725 1518l119 0.000976562c-20 -88.667 -47.5 -153.167 -82.5 -193.5s-80.5 -60.5 -136.5 -60.5c-15.333 0 -29.166 0.833008 -41.499 2.5s-23.833 4.16699 -34.5 7.5l-92 26c-20 6 -34.833 10 -44.5 12s-17.5 3 -23.5 3c-22.667 0 -41.334 -6.33301 -56.001 -19
s-26 -32.334 -34 -59.001h-119c18.667 84 45.5 146 80.5 186s79.833 60 134.5 60c10.667 0 23.334 -1.33301 38.001 -4s32 -7 52 -13l95 -26c8 -2.66699 16.667 -4.66699 26 -6s19.666 -2 30.999 -2c22 0 40.333 7.16699 55 21.5s25.667 35.833 33 64.5z" />
    <glyph glyph-name="hungarumlaut" unicode="&#x2dd;" 
d="M725 1563h254l-291 -371h-119zM397 1563h246l-252 -371h-110z" />
    <glyph glyph-name="Omega" unicode="&#x3a9;" horiz-adv-x="1645" 
d="M1266 307l333.001 -0.00195312v-307h-636v352c61.333 54.667 108.666 120.167 141.999 196.5s50 158.5 50 246.5c0 121.333 -30 217.5 -90 288.5s-141.333 106.5 -244 106.5c-102 0 -183.167 -35.833 -243.5 -107.5s-90.5 -168.167 -90.5 -289.5
c0 -88 16.667 -170.167 50 -246.5s81 -141.166 143 -194.499v-352h-635v307h332c-88 63.333 -154.667 139.833 -200 229.5s-68 189.5 -68 299.5c0 202 65.167 365 195.5 489s302.5 186 516.5 186c215.333 0 388 -61.667 518 -185s195 -286.666 195 -489.999
c0 -110 -22.667 -209.833 -68 -299.5s-112 -166.167 -200 -229.5z" />
    <glyph glyph-name="pi" unicode="&#x3c0;" horiz-adv-x="1530" 
d="M1538 1090l-39 -232h-178l-135 -858h-357l134 858h-232l-135 -858h-354l133 858h-27c-28 0 -51.5 -11.833 -70.5 -35.5s-31.167 -56.167 -36.5 -97.5h-235c22 139.333 63.5 235 124.5 287s164.833 78 311.5 78h1096z" />
    <glyph glyph-name="endash" unicode="&#x2013;" 
d="M0 694h1024v-198h-1024v198z" />
    <glyph glyph-name="emdash" unicode="&#x2014;" horiz-adv-x="2048" 
d="M0 694h2048v-198h-2048v198z" />
    <glyph glyph-name="quoteleft" unicode="&#x2018;" horiz-adv-x="631" 
d="M291 1421h270l-131 -547h-340z" />
    <glyph glyph-name="quoteright" unicode="&#x2019;" horiz-adv-x="631" 
d="M238 1421h337l-198 -544h-271z" />
    <glyph glyph-name="quotesinglbase" unicode="&#x201a;" horiz-adv-x="631" 
d="M182 324h340l-200 -547h-271z" />
    <glyph glyph-name="quotedblleft" unicode="&#x201c;" horiz-adv-x="1147" 
d="M807 1421h270l-131 -547h-338zM291 1421h270l-131 -547h-340z" />
    <glyph glyph-name="quotedblright" unicode="&#x201d;" horiz-adv-x="1147" 
d="M756 1421h338l-201 -544h-270zM238 1421h337l-198 -544h-271z" />
    <glyph glyph-name="quotedblbase" unicode="&#x201e;" horiz-adv-x="1147" 
d="M700 324h338l-200 -547h-271zM182 324h340l-200 -547h-271z" />
    <glyph glyph-name="dagger" unicode="&#x2020;" 
d="M350 1421h324v-397h323v-266h-323v-1032h-324v1032h-323v266h323v397z" />
    <glyph glyph-name="daggerdbl" unicode="&#x2021;" 
d="M356 1421h312v-346h319v-256h-319v-489h319v-256h-319v-344h-312v344h-317v256h317v489h-317v256h317v346z" />
    <glyph glyph-name="bullet" unicode="&#x2022;" horiz-adv-x="1208" 
d="M307 762c0 82 28.999 151.666 86.999 208.999s128 86 210 86c81.333 0 150.833 -28.833 208.5 -86.5s86.5 -127.167 86.5 -208.5s-29.167 -151.166 -87.5 -209.499s-128.166 -87.5 -209.499 -87.5c-82 0 -151.667 29 -209 87s-86 128 -86 210z" />
    <glyph glyph-name="ellipsis" unicode="&#x2026;" horiz-adv-x="2048" 
d="M174 326h334v-326h-334v326zM856 326h334v-326h-334v326zM1540 326h334v-326h-334v326z" />
    <glyph glyph-name="perthousand" unicode="&#x2030;" horiz-adv-x="2787" 
d="M2355 623c-35.333 0 -60.833 -18.6689 -76.5 -56.002s-23.5 -98.666 -23.5 -183.999c0 -87.333 7.5 -148.833 22.5 -184.5s40.167 -53.5 75.5 -53.5c36 0 61.333 17.833 76 53.5s22 97.167 22 184.5c0 88.667 -7.33301 150.834 -22 186.501s-39.334 53.5 -74 53.5z
M1509 622.998c-34.667 0 -59.668 -18.3311 -75.001 -54.998s-23 -98.334 -23 -185.001c0 -87.333 7.5 -148.833 22.5 -184.5s40.167 -53.5 75.5 -53.5c36 0 61.5 17.833 76.5 53.5s22.5 97.167 22.5 184.5s-7.66699 149.166 -23 185.499s-40.666 54.5 -75.999 54.5z
M2355 801c109.333 0 196.5 -37.667 261.5 -113s97.5 -177 97.5 -305c0 -127.333 -32.5 -228.5 -97.5 -303.5s-152.167 -112.5 -261.5 -112.5c-108.667 0 -195.5 37.667 -260.5 113s-97.5 176.333 -97.5 303c0 128 32.333 229.667 97 305s151.667 113 261 113zM1511 801
c110 0 197.335 -37.667 262.002 -113s97 -177 97 -305c0 -127.333 -32.5 -228.5 -97.5 -303.5s-152.167 -112.5 -261.5 -112.5c-108.667 0 -195.834 37.833 -261.501 113.5s-98.5 176.5 -98.5 302.5c0 128 32.667 229.667 98 305s152.666 113 261.999 113zM432.001 1278
c-35.333 0 -60.832 -18.6689 -76.499 -56.002s-23.5 -98.666 -23.5 -183.999c0 -88 7.5 -149.833 22.5 -185.5s40.167 -53.5 75.5 -53.5s60.5 17.833 75.5 53.5s22.5 97.5 22.5 185.5c0 88.667 -7.33301 150.834 -22 186.501s-39.334 53.5 -74.001 53.5zM1241 1456h211
l-750 -1489h-213zM432.002 1456c109.333 0 196.5 -37.667 261.5 -113s97.5 -177 97.5 -305c0 -127.333 -32.5 -228.666 -97.5 -303.999s-152.167 -113 -261.5 -113c-108.667 0 -195.5 37.667 -260.5 113s-97.5 176.666 -97.5 303.999c0 128 32.333 229.667 97 305
s151.667 113 261 113z" />
    <glyph glyph-name="guilsinglleft" unicode="&#x2039;" horiz-adv-x="659" 
d="M295 961h299l-217 -418l213 -418h-297l-234 418z" />
    <glyph glyph-name="guilsinglright" unicode="&#x203a;" horiz-adv-x="659" 
d="M68 961h299l231 -418l-236 -418h-299l218 418z" />
    <glyph glyph-name="franc" unicode="&#x20a3;" horiz-adv-x="2036" 
d="M137 1421h936v-270h-555v-303h531v-270h-531v-578h-381v1421zM2032 1069l-19 -311.001c-14.667 6 -31 10.5 -49 13.5s-39 4.5 -63 4.5c-86 0 -150.833 -27.667 -194.5 -83s-65.5 -136.666 -65.5 -243.999v-449h-361v1053h322v-201c36.667 78 81.334 135.667 134.001 173
s115 56 187 56c18.667 0 52.667 -3.66699 102 -11c3.33301 -0.666992 5.66602 -1 6.99902 -1z" />
    <glyph glyph-name="trademark" unicode="&#x2122;" horiz-adv-x="1706" 
d="M797 1464h223l113 -303l114 303h221v-551h-155v390l-146 -390h-65l-150 390v-390h-155v551zM188 1464h502v-127h-164v-424h-174v424h-164v127z" />
    <glyph glyph-name="partialdiff" unicode="&#x2202;" horiz-adv-x="1114" 
d="M766 684c14 75.333 24.668 144.001 32.001 206.001s11 112 11 150c0 58 -9.83301 107.333 -29.5 148s-42.5 61 -68.5 61c-23.333 0 -67.333 -31 -132 -93s-124.667 -93 -180 -93c-32 0 -58.667 11.167 -80 33.5s-32 50.166 -32 83.499c0 46 31 87.833 93 125.5
s135.333 56.5 220 56.5c140 0 250.833 -53.667 332.5 -161s122.5 -254.333 122.5 -441c0 -229.333 -54.167 -417.5 -162.5 -564.5s-247.5 -220.5 -417.5 -220.5c-121.333 0 -221 38.833 -299 116.5s-117 177.5 -117 299.5c0 135.333 39.833 247.333 119.5 336
s179.167 133 298.5 133c67.333 0 124.166 -14.167 170.499 -42.5s85.833 -72.833 118.5 -133.5zM698.001 532.001c0 76 -12.168 134.667 -36.501 176s-59.166 62 -104.499 62c-64 0 -117.5 -45.5 -160.5 -136.5s-64.5 -206.5 -64.5 -346.5c0 -77.333 12.167 -136 36.5 -176
s59.833 -60 106.5 -60c64.667 0 118 45.167 160 135.5s63 205.5 63 345.5z" />
    <glyph glyph-name="Delta" unicode="&#x2206;" horiz-adv-x="1468" 
d="M733 1059l-262 -774h526zM537 1473h395l541 -1473h-1475z" />
    <glyph glyph-name="product" unicode="&#x220f;" horiz-adv-x="1645" 
d="M145 1473h1348v-1866h-399v1532h-549v-1532h-400v1866z" />
    <glyph glyph-name="summation" unicode="&#x2211;" horiz-adv-x="1520" 
d="M72 1473h1335v-302h-838l596 -608l-587 -651h895v-305h-1424v184l684 756l-661 665v261z" />
    <glyph glyph-name="minus" unicode="&#x2212;" horiz-adv-x="1706" 
d="M254 729h1198v-235h-1198v235z" />
    <glyph glyph-name="fraction" unicode="&#x2215;" horiz-adv-x="342" 
d="M440 1456h213l-751 -1489h-213z" />
    <glyph glyph-name="periodcentered" unicode="&#x2219;" horiz-adv-x="631" 
d="M315 885c48.667 0 89.832 -16.999 123.499 -50.999s50.5 -75 50.5 -123c0 -47.333 -17.167 -87.833 -51.5 -121.5s-75.166 -50.5 -122.499 -50.5c-46 0 -86.167 17.167 -120.5 51.5s-51.5 74.5 -51.5 120.5c0 47.333 17 88.166 51 122.499s74.333 51.5 121 51.5z" />
    <glyph glyph-name="radical" unicode="&#x221a;" horiz-adv-x="1366" 
d="M1155 1714h215v-149h-96l-590 -1606h-119l-307 846l-145 -55l-37 129l360 127l223 -635z" />
    <glyph glyph-name="infinity" unicode="&#x221e;" horiz-adv-x="1706" 
d="M956 561c28.667 -44.667 62.668 -78.334 102.001 -101.001s83.333 -34 132 -34c60 0 108.833 16.833 146.5 50.5s56.5 76.834 56.5 129.501c0 51.333 -17.167 93.833 -51.5 127.5s-76.833 50.5 -127.5 50.5c-48 0 -91.833 -16.833 -131.5 -50.5
s-81.834 -91.167 -126.501 -172.5zM752.001 657c-28.667 44.667 -62.333 78.167 -101 100.5s-83 33.5 -133 33.5c-60 0 -108.833 -16.667 -146.5 -50s-56.5 -76.333 -56.5 -129c0 -51.333 17 -93.833 51 -127.5s76.667 -50.5 128 -50.5c47.333 0 91.333 17.5 132 52.5
s82.667 91.833 126 170.5zM856.002 442c-45.333 -86.667 -94.5 -151 -147.5 -193s-111.833 -63 -176.5 -63c-92.667 0 -172 40.5 -238 121.5s-99 181.167 -99 300.5c0 125.333 29.167 227 87.5 305s134.166 117 227.499 117c60 0 115.5 -18.833 166.5 -56.5
s109.5 -104.167 175.5 -199.5c47.333 88 97.333 153 150 195s110.667 63 174 63c93.333 0 172.833 -40.333 238.5 -121s98.5 -181 98.5 -301c0 -126 -29.167 -228.167 -87.5 -306.5s-134.166 -117.5 -227.499 -117.5c-60.667 0 -116 18.333 -166 55
s-108.667 103.667 -176 201z" />
    <glyph glyph-name="integral" unicode="&#x222b;" horiz-adv-x="1249" 
d="M362 -248c66 0 105.666 222.335 118.999 667.002c2 67.333 3.33301 118.666 4 153.999c11.333 348.667 54.833 599.667 130.5 753s192.167 230 349.5 230c70 0 126.667 -17.667 170 -53s65 -81 65 -137c0 -42.667 -13.667 -77.167 -41 -103.5
s-62.666 -39.5 -105.999 -39.5c-42.667 0 -74.834 12.833 -96.501 38.5s-32.5 63.167 -32.5 112.5c0 25.333 -2.5 41.666 -7.5 48.999s-13.5 11 -25.5 11c-67.333 0 -108.666 -222.333 -123.999 -667l-3 -91c-7.33301 -219.333 -17.5 -376.833 -30.5 -472.5
s-32.167 -177.167 -57.5 -244.5c-41.333 -110.667 -94.5 -193.667 -159.5 -249s-141.5 -83 -229.5 -83c-71.333 0 -128.5 17.333 -171.5 52s-64.5 81 -64.5 139c0 43.333 14 78 42 104s65.333 39 112 39c40 0 70.833 -12 92.5 -36s32.5 -58.333 32.5 -103
c0 -8 -0.666992 -16 -2 -24v-3c0 -16 2.66699 -27.167 8 -33.5s14 -9.5 26 -9.5z" />
    <glyph glyph-name="approxequal" unicode="&#x2248;" horiz-adv-x="1706" 
d="M1530 602l0.000976562 -253.999c-70 -47.333 -135.333 -82 -196 -104s-121 -33 -181 -33s-154.333 21.833 -283 65.5s-231.667 65.5 -309 65.5c-54.667 0 -112.167 -12.333 -172.5 -37s-130.5 -65 -210.5 -121v254c74 49.333 143.667 85.666 209 108.999
s130.333 35 195 35c76.667 0 178.167 -21.833 304.5 -65.5s217.166 -65.5 272.499 -65.5s112 11.667 170 35s125 62 201 116zM1530 1036l0.00292969 -253.999c-71.333 -46.667 -137 -80.834 -197 -102.501s-119.333 -32.5 -178 -32.5c-60.667 0 -155.334 21.5 -284.001 64.5
s-232 64.5 -310 64.5c-56 0 -113.333 -12 -172 -36s-129 -64.667 -211 -122v256c74.667 49.333 144.334 85.333 209.001 108s129.667 34 195 34c76.667 0 178.167 -21.833 304.5 -65.5s217.166 -65.5 272.499 -65.5s112.166 11.833 170.499 35.5
s125.166 62.167 200.499 115.5z" />
    <glyph glyph-name="notequal" unicode="&#x2260;" horiz-adv-x="1706" 
d="M1194 1251l168 -137l-135 -168h225v-221h-377l-180 -227h557v-222h-704l-246 -307l-170 137l135 170h-213v222h360l183 227h-543v221h694z" />
    <glyph glyph-name="lessequal" unicode="&#x2264;" horiz-adv-x="1706" 
d="M256 213h1196v-229h-1196v229zM1450 1257v-239l-776 -240l776 -239v-240l-1194 379v201z" />
    <glyph glyph-name="greaterequal" unicode="&#x2265;" horiz-adv-x="1706" 
d="M256 213h1196v-229h-1196v229zM258 1257l1192 -378v-201l-1192 -379v240l776 239l-776 240v239z" />
    <glyph glyph-name="lozenge" unicode="&#x25ca;" horiz-adv-x="1012" 
d="M506 1409l-385 -817l385 -825l385 825zM506 1653l500 -1061l-500 -1069l-500 1069z" />
    <glyph glyph-name="apple" unicode="&#xf000;" horiz-adv-x="1618" 
d="M836 1216c-0.666992 4 -1.16699 8.66895 -1.5 14.002s-0.5 13 -0.5 23c0 82.667 31.667 159.167 95 229.5s142 114.166 236 131.499c0.666992 -6.66699 1.16699 -14.334 1.5 -23.001s0.5 -21.667 0.5 -39c0 -87.333 -34.5 -165.5 -103.5 -234.5
s-136.833 -103.5 -203.5 -103.5h-8c-2 0 -4.5 0.333008 -7.5 1s-5.83301 1 -8.5 1zM1505 403.002c-76 -164.667 -144.336 -278.834 -205.003 -342.501s-128.667 -95.5 -204 -95.5c-33.333 0 -77.166 11 -131.499 33s-95.166 33 -122.499 33c-30 0 -73.667 -11 -131 -33
s-99.666 -33 -126.999 -33c-42.667 0 -85.5 14.667 -128.5 44s-86.167 73.333 -129.5 132c-68 93.333 -120.5 191.833 -157.5 295.5s-55.5 203.834 -55.5 300.501c0 146 41.667 264.833 125 356.5s191 137.5 323 137.5c45.333 0 97 -11.333 155 -34s99.333 -34 124 -34
c22.667 0 63.167 11.667 121.5 35s109.166 35 152.499 35c73.333 0 139.333 -13.333 198 -40s112.334 -68 161.001 -124c-68 -43.333 -118.5 -91.833 -151.5 -145.5s-49.5 -114.5 -49.5 -182.5c0 -75.333 20 -142 60 -200s97.667 -104 173 -138z" />
    <glyph glyph-name="fi" unicode="&#xf001;" horiz-adv-x="1526" 
d="M1026 1053h360v-1053h-360v1053zM1026 1536h360v-293h-360v293zM874 1532l-23.999 -246.001c-14.667 6.66699 -29.5 11.834 -44.5 15.501s-30.167 5.5 -45.5 5.5c-51.333 0 -88.833 -15.333 -112.5 -46s-35.5 -79 -35.5 -145v-63h254v-262h-254v-791h-354v791h-221v262
h221v96c0 135.333 34.5 237 103.5 305s171.833 102 308.5 102c40 0 76.667 -2 110 -6s64.666 -10 93.999 -18z" />
    <glyph glyph-name="fl" unicode="&#xf002;" horiz-adv-x="1526" 
d="M1026 1536h360v-1536h-360v1536zM874 1532l-21.999 -246.001c-14.667 6.66699 -29.5 11.834 -44.5 15.501s-30.167 5.5 -45.5 5.5c-51.333 0 -88.833 -15.333 -112.5 -46s-35.5 -79 -35.5 -145v-63h252v-262h-252v-791h-356v791h-221v262h221v96
c0 135.333 34.5 237 103.5 305s171.833 102 308.5 102c40 0 76.667 -2 110 -6s64.666 -10 93.999 -18z" />
    <glyph glyph-name=".null" horiz-adv-x="0" 
 />
    <glyph glyph-name="nonmarkingreturn" horiz-adv-x="631" 
 />
    </font>
</defs>
</svg>
